<svg width="43" height="44" viewBox="0 0 43 44" fill="none" xmlns="http://www.w3.org/2000/svg">
<path d="M8.0625 2.75H34.9375C37.8937 2.75 40.3125 5.225 40.3125 8.25V35.75C40.3125 38.775 37.8937 41.25 34.9375 41.25H8.0625C5.10625 41.25 2.6875 38.775 2.6875 35.75V8.25C2.6875 5.225 5.10625 2.75 8.0625 2.75Z" fill="#1877F2"/>
<path fill-rule="evenodd" clip-rule="evenodd" d="M17.7375 22.1375V35.475C17.7375 35.6125 17.8719 35.8875 18.1406 35.8875H23.3813C23.65 35.8875 23.7844 35.75 23.7844 35.475V22H27.5469C27.6813 22 27.95 21.8625 27.95 21.725L28.3531 17.6C28.3531 17.325 28.2188 17.1875 27.95 17.1875H23.7844V14.3C23.7844 13.6125 24.3219 13.0625 25.1281 13.0625H28.0844C28.3531 13.0625 28.4875 12.925 28.4875 12.65V8.6625C28.2188 8.3875 28.0844 8.25 27.8156 8.25H22.9781C20.1563 8.25 17.7375 10.45 17.7375 13.2V17.1875H15.1844C14.9156 17.1875 14.7812 17.325 14.7812 17.6V21.725C14.7812 21.8625 14.9156 22.1375 15.1844 22.1375H17.7375Z" fill="white"/>
</svg>
