<svg width="42" height="43" viewBox="0 0 42 43" fill="none" xmlns="http://www.w3.org/2000/svg">
<path d="M31.5 2.6875H10.5C6.15076 2.6875 2.625 6.2972 2.625 10.75V32.25C2.625 36.7028 6.15076 40.3125 10.5 40.3125H31.5C35.8492 40.3125 39.375 36.7028 39.375 32.25V10.75C39.375 6.2972 35.8492 2.6875 31.5 2.6875Z" fill="url(#paint0_radial_739_13573)"/>
<path d="M31.5 2.6875H10.5C6.15076 2.6875 2.625 6.2972 2.625 10.75V32.25C2.625 36.7028 6.15076 40.3125 10.5 40.3125H31.5C35.8492 40.3125 39.375 36.7028 39.375 32.25V10.75C39.375 6.2972 35.8492 2.6875 31.5 2.6875Z" fill="url(#paint1_radial_739_13573)"/>
<path d="M31.5 2.6875H10.5C6.15076 2.6875 2.625 6.2972 2.625 10.75V32.25C2.625 36.7028 6.15076 40.3125 10.5 40.3125H31.5C35.8492 40.3125 39.375 36.7028 39.375 32.25V10.75C39.375 6.2972 35.8492 2.6875 31.5 2.6875Z" fill="url(#paint2_radial_739_13573)"/>
<path d="M30.1875 14.1094C30.1875 15.2225 29.306 16.125 28.2188 16.125C27.1315 16.125 26.25 15.2225 26.25 14.1094C26.25 12.9962 27.1315 12.0938 28.2188 12.0938C29.306 12.0938 30.1875 12.9962 30.1875 14.1094Z" fill="white"/>
<path fill-rule="evenodd" clip-rule="evenodd" d="M21 28.2188C24.6243 28.2188 27.5625 25.2106 27.5625 21.5C27.5625 17.7894 24.6243 14.7812 21 14.7812C17.3757 14.7812 14.4375 17.7894 14.4375 21.5C14.4375 25.2106 17.3757 28.2188 21 28.2188ZM21 25.5312C23.1747 25.5312 24.9375 23.7265 24.9375 21.5C24.9375 19.2735 23.1747 17.4688 21 17.4688C18.8253 17.4688 17.0625 19.2735 17.0625 21.5C17.0625 23.7265 18.8253 25.5312 21 25.5312Z" fill="white"/>
<path fill-rule="evenodd" clip-rule="evenodd" d="M7.875 20.9625C7.875 16.4471 7.875 14.1893 8.73332 12.4647C9.48833 10.9476 10.693 9.71424 12.1748 8.94126C13.8593 8.0625 16.0646 8.0625 20.475 8.0625H21.525C25.9354 8.0625 28.1407 8.0625 29.8251 8.94126C31.3069 9.71424 32.5117 10.9476 33.2666 12.4647C34.125 14.1893 34.125 16.4471 34.125 20.9625V22.0375C34.125 26.5529 34.125 28.8107 33.2666 30.5352C32.5117 32.0523 31.3069 33.2858 29.8251 34.0587C28.1407 34.9375 25.9354 34.9375 21.525 34.9375H20.475C16.0646 34.9375 13.8593 34.9375 12.1748 34.0587C10.693 33.2858 9.48833 32.0523 8.73332 30.5352C7.875 28.8107 7.875 26.5529 7.875 22.0375V20.9625ZM20.475 10.75H21.525C23.7736 10.75 25.302 10.7521 26.4835 10.8509C27.6344 10.9472 28.2229 11.1217 28.6335 11.3358C29.6213 11.8512 30.4244 12.6734 30.9277 13.6848C31.137 14.1051 31.3075 14.7076 31.4014 15.8859C31.4979 17.0956 31.5 18.6604 31.5 20.9625V22.0375C31.5 24.3396 31.4979 25.9044 31.4014 27.1141C31.3075 28.2924 31.137 28.8949 30.9277 29.3153C30.4244 30.3266 29.6213 31.1488 28.6335 31.6641C28.2229 31.8783 27.6344 32.0529 26.4835 32.1491C25.302 32.2479 23.7736 32.25 21.525 32.25H20.475C18.2264 32.25 16.698 32.2479 15.5165 32.1491C14.3656 32.0529 13.7771 31.8783 13.3665 31.6641C12.3787 31.1488 11.5756 30.3266 11.0722 29.3153C10.863 28.8949 10.6926 28.2924 10.5986 27.1141C10.502 25.9044 10.5 24.3396 10.5 22.0375V20.9625C10.5 18.6604 10.502 17.0956 10.5986 15.8859C10.6926 14.7076 10.863 14.1051 11.0722 13.6848C11.5756 12.6734 12.3787 11.8512 13.3665 11.3358C13.7771 11.1217 14.3656 10.9472 15.5165 10.8509C16.698 10.7521 18.2264 10.75 20.475 10.75Z" fill="white"/>
<defs>
<radialGradient id="paint0_radial_739_13573" cx="0" cy="0" r="1" gradientUnits="userSpaceOnUse" gradientTransform="translate(15.75 30.9063) rotate(-56.0035) scale(34.0365 33.7458)">
<stop stop-color="#B13589"/>
<stop offset="0.79309" stop-color="#C62F94"/>
<stop offset="1" stop-color="#8A3AC8"/>
</radialGradient>
<radialGradient id="paint1_radial_739_13573" cx="0" cy="0" r="1" gradientUnits="userSpaceOnUse" gradientTransform="translate(14.4375 41.6563) rotate(-65.6467) scale(30.2373 29.7761)">
<stop stop-color="#E0E8B7"/>
<stop offset="0.444662" stop-color="#FB8A2E"/>
<stop offset="0.71474" stop-color="#E2425C"/>
<stop offset="1" stop-color="#E2425C" stop-opacity="0"/>
</radialGradient>
<radialGradient id="paint2_radial_739_13573" cx="0" cy="0" r="1" gradientUnits="userSpaceOnUse" gradientTransform="translate(0.656251 4.03125) rotate(-8.32099) scale(51.0689 11.1724)">
<stop offset="0.156701" stop-color="#406ADC"/>
<stop offset="0.467799" stop-color="#6A45BE"/>
<stop offset="1" stop-color="#6A45BE" stop-opacity="0"/>
</radialGradient>
</defs>
</svg>
