<svg width="37" height="37" viewBox="0 0 37 37" fill="none" xmlns="http://www.w3.org/2000/svg">
<g clip-path="url(#clip0_739_13599)">
<path d="M19.0928 18.947C16.2411 19.1162 15.2985 20.4937 15.371 21.7262C15.4677 23.3938 17.2561 24.1671 18.9961 24.0705C20.6878 23.9738 22.6212 23.3213 22.9595 19.2129C22.0895 19.0195 21.0987 18.9229 20.0836 18.9229C19.7211 18.9229 19.407 18.9229 19.0928 18.947Z" fill="url(#paint0_linear_739_13599)"/>
<path d="M28.4931 0H8.50686C3.81842 0 0 3.81842 0 8.50686V28.5173C0 33.2057 3.81842 37.0242 8.50686 37.0242H28.5173C33.2057 37.0242 37.0242 33.2057 37.0242 28.5173V8.50686C37 3.81842 33.2057 0 28.4931 0ZM10.2227 28.034C12.0836 30.4024 14.9595 31.6107 18.7538 31.6349C22.1613 31.6107 24.4331 30.789 26.3181 28.9282C28.469 26.7773 28.4206 24.143 27.744 22.548C27.3331 21.6055 26.6081 20.8321 25.6172 20.228C25.3756 22.0163 24.8439 23.4422 23.9739 24.5297C22.838 25.9798 21.2188 26.7531 19.1404 26.8739C17.5696 26.9706 16.0712 26.5839 14.887 25.8106C13.5095 24.8922 12.6878 23.4905 12.6153 21.8713C12.4461 18.6571 14.9837 16.3612 18.9471 16.1195C20.3488 16.047 21.678 16.0954 22.8863 16.3129C22.7172 15.322 22.403 14.5487 21.9197 13.9686C21.243 13.1953 20.228 12.7845 18.8504 12.7845C18.8263 12.7845 18.8263 12.7845 18.8021 12.7845C17.6662 12.8086 16.192 13.0986 15.2253 14.5487L12.9295 12.9778C14.2103 11.0444 16.2645 9.98106 18.7538 9.98106C18.7779 9.98106 18.8021 9.98106 18.8021 9.98106C22.9589 10.0052 25.4481 12.6153 25.6897 17.1346C25.8347 17.2071 25.9798 17.2554 26.1006 17.3279C28.034 18.2704 29.4598 19.6721 30.209 21.4121C31.2482 23.8289 31.3449 27.7681 28.2031 30.934C25.7864 33.3507 22.8622 34.4141 18.7296 34.4624H18.7054C14.0412 34.4383 10.4644 32.8674 8.04768 29.7982C5.8968 27.0673 4.78511 23.273 4.76094 18.5363C4.80928 13.7753 5.8968 9.98106 8.04768 7.27433C10.4644 4.20509 14.0412 2.63423 18.7054 2.61006H18.7296C23.3939 2.63423 27.0431 4.20509 29.5082 7.25016C30.7407 8.74853 31.6349 10.5611 32.2149 12.6878L29.5323 13.4128C29.049 11.6969 28.3481 10.2227 27.4056 9.0627C25.4722 6.69432 22.548 5.46179 18.7296 5.43762C14.9595 5.38929 12.0836 6.62182 10.2227 8.9902C8.48269 11.2136 7.56434 14.4037 7.54017 18.5121C7.56434 22.5963 8.48269 25.8106 10.2227 28.034Z" fill="url(#paint1_linear_739_13599)"/>
</g>
<defs>
<linearGradient id="paint0_linear_739_13599" x1="7.52379" y1="-1.57449" x2="28.9118" y2="39.3889" gradientUnits="userSpaceOnUse">
<stop stop-color="#515BD4"/>
<stop offset="0.25" stop-color="#8134AF"/>
<stop offset="0.5" stop-color="#DD2A7B"/>
<stop offset="0.75" stop-color="#F58529"/>
<stop offset="1" stop-color="#FEDA77"/>
</linearGradient>
<linearGradient id="paint1_linear_739_13599" x1="7.91377" y1="-1.77839" x2="29.3018" y2="39.185" gradientUnits="userSpaceOnUse">
<stop stop-color="#515BD4"/>
<stop offset="0.25" stop-color="#8134AF"/>
<stop offset="0.5" stop-color="#DD2A7B"/>
<stop offset="0.75" stop-color="#F58529"/>
<stop offset="1" stop-color="#FEDA77"/>
</linearGradient>
<clipPath id="clip0_739_13599">
<rect width="37" height="37" fill="white"/>
</clipPath>
</defs>
</svg>
