<svg width="44" height="45" viewBox="0 0 44 45" fill="none" xmlns="http://www.w3.org/2000/svg">
<path d="M40.3346 12.2812C40.314 11.4723 40.2528 10.665 40.1513 9.8625C40.0144 9.15961 39.7863 8.47858 39.473 7.8375C39.1453 7.14207 38.7052 6.50817 38.1713 5.9625C37.6325 5.42288 37.0137 4.97361 36.338 4.63125C35.7103 4.31708 35.0444 4.09008 34.358 3.95625C33.5808 3.83719 32.797 3.7683 32.0113 3.75H12.0096C11.2187 3.77107 10.4293 3.83365 9.64464 3.9375C8.95736 4.0775 8.29147 4.31082 7.66463 4.63125C6.98466 4.96638 6.36485 5.41645 5.8313 5.9625C5.30368 6.51358 4.86439 7.14636 4.52964 7.8375C4.22245 8.47943 4.00049 9.16045 3.86964 9.8625C3.75322 10.6574 3.68586 11.459 3.66797 12.2625C3.66797 12.6187 3.66797 13.125 3.66797 13.275V31.725C3.66797 31.9312 3.66797 32.3812 3.66797 32.7187C3.68857 33.5277 3.74976 34.335 3.8513 35.1375C3.98819 35.8404 4.21632 36.5214 4.52964 37.1625C4.85732 37.8579 5.29739 38.4918 5.8313 39.0375C6.37014 39.5771 6.98886 40.0264 7.66463 40.3687C8.2923 40.6829 8.95819 40.9099 9.64464 41.0437C10.4218 41.1628 11.2056 41.2317 11.9913 41.25H31.993C32.7839 41.2289 33.5733 41.1663 34.358 41.0625C35.0452 40.9225 35.7111 40.6892 36.338 40.3687C37.0179 40.0336 37.6378 39.5835 38.1713 39.0375C38.6989 38.4864 39.1382 37.8536 39.473 37.1625C39.7802 36.5206 40.0021 35.8395 40.133 35.1375C40.2494 34.3426 40.3167 33.541 40.3346 32.7375C40.3346 32.3812 40.3346 31.9312 40.3346 31.725V13.275C40.3346 13.125 40.3346 12.6187 40.3346 12.2812ZM22.423 35.625C20.2212 35.6139 18.058 35.0334 16.1346 33.9375L9.16797 35.8125L11.0013 28.8375C9.81901 26.8058 9.18628 24.4892 9.16797 22.125C9.17527 19.468 9.95117 16.8726 11.398 14.6657C12.8448 12.4588 14.8977 10.7391 17.2983 9.72322C19.6989 8.70731 22.3397 8.44063 24.8882 8.95676C27.4367 9.47289 29.7789 10.7487 31.6198 12.6236C33.4606 14.4985 34.7179 16.8886 35.2331 19.4928C35.7484 22.0971 35.4986 24.799 34.5152 27.2584C33.5319 29.7177 31.859 31.8245 29.7072 33.3133C27.5554 34.8022 25.0209 35.6065 22.423 35.625ZM22.423 11.0062C20.4793 11.029 18.5762 11.5781 16.9075 12.5976C15.2388 13.6172 13.864 15.0707 12.9232 16.8103C11.9823 18.55 11.509 20.5135 11.5515 22.501C11.5939 24.4885 12.1505 26.429 13.1646 28.125L13.4213 28.5562L12.3213 32.6625L16.5013 31.5L16.9046 31.7437C18.5722 32.7483 20.4694 33.2851 22.4046 33.3C25.322 33.3 28.1199 32.1147 30.1828 30.0049C32.2457 27.8952 33.4046 25.0337 33.4046 22.05C33.4046 19.0663 32.2457 16.2048 30.1828 14.095C28.1199 11.9853 25.322 10.8 22.4046 10.8L22.423 11.0062ZM28.8396 26.9812C28.5995 27.3909 28.278 27.7444 27.8959 28.0189C27.5137 28.2935 27.0795 28.4829 26.6213 28.575C25.9366 28.703 25.2317 28.6579 24.568 28.4437C23.9434 28.2441 23.3312 28.0061 22.7346 27.7312C20.4682 26.5681 18.5353 24.8239 17.1246 22.6687C16.3581 21.6703 15.893 20.4648 15.7863 19.2C15.7754 18.6746 15.8726 18.1527 16.0715 17.6682C16.2705 17.1837 16.5668 16.7474 16.9413 16.3875C17.0516 16.2596 17.1869 16.1568 17.3385 16.0857C17.4901 16.0147 17.6546 15.977 17.8213 15.975H18.3346C18.5363 15.975 18.8113 15.975 19.068 16.5562C19.3246 17.1375 20.003 18.8812 20.0946 19.05C20.1397 19.1399 20.1632 19.2396 20.1632 19.3406C20.1632 19.4417 20.1397 19.5413 20.0946 19.6312C20.0136 19.835 19.9023 20.0247 19.7646 20.1937C19.5996 20.4 19.4163 20.6437 19.2696 20.7937C19.123 20.9437 18.9396 21.1312 19.123 21.4687C19.6218 22.3297 20.2392 23.1128 20.9563 23.7937C21.7372 24.4994 22.63 25.0638 23.5963 25.4625C23.9263 25.6312 24.128 25.6125 24.3113 25.4625C24.4946 25.3125 25.1363 24.4875 25.3563 24.15C25.5763 23.8125 25.7963 23.8687 26.0896 23.9812C26.383 24.0937 28.0146 24.9 28.3446 25.0687C28.6746 25.2375 28.8763 25.3125 28.968 25.4625C29.0475 25.9532 29.0033 26.4566 28.8396 26.925V26.9812Z" fill="#48C658"/>
</svg>
