<svg width="19" height="9" viewBox="0 0 19 9" fill="none" xmlns="http://www.w3.org/2000/svg">
<path d="M18.6436 3.10451C18.1619 1.48382 17.2397 1.48912 17.2397 1.48912C15.6019 2.62015 12.3756 2.69888 11.4744 2.41203C10.8581 2.21571 10.3977 1.66019 10.3977 1.66019L9.11699 0.437478C9.11699 0.437478 8.84082 0.0859581 8.45844 0.0068776C8.28503 -0.0289738 7.96793 0.0783113 7.71136 0.259374C6.3716 1.20346 3.96394 2.06758 2.65483 2.13517C1.09508 2.21629 -1.08884 3.91222 0.627021 6.57721C2.12149 8.89829 6.55466 9 9.20642 9C10.5323 9 12.4698 7.45132 12.4698 7.45132C12.5746 7.40137 12.6969 7.4102 12.794 7.47514C12.8914 7.53978 12.9501 7.6509 12.9501 7.77022V8.30868C12.9501 8.6461 13.2138 8.91946 13.5397 8.91946C13.5397 8.91946 14.7438 8.91946 15.368 8.91946C15.9918 8.91946 17.3177 8.7578 17.8636 8.11175C19.1114 6.49632 19.2675 5.20429 18.6436 3.10451Z" fill="#E1E1E1"/>
</svg>
