<svg width="35" height="35" viewBox="0 0 35 35" fill="none" xmlns="http://www.w3.org/2000/svg">
<path d="M5.83333 1.09375H1.45833C0.652918 1.09375 0 1.74668 0 2.55208V3.28125C0 4.08666 0.652918 4.73958 1.45833 4.73958H4.39235L8.36538 21.483C9.01639 24.2266 11.4343 26.1782 14.2402 26.2481V26.25H25.6483C28.4903 26.25 30.9187 24.2019 31.3981 21.4006L33.2291 10.7003C33.5339 8.91874 32.1616 7.29167 30.3542 7.29167H8.745L7.607 2.49579C7.41199 1.67398 6.67797 1.09375 5.83333 1.09375Z" fill="#E1E1E1"/>
<path d="M14.5833 30.625C14.5833 32.2359 13.2775 33.5417 11.6667 33.5417C10.0558 33.5417 8.75 32.2359 8.75 30.625C8.75 29.0141 10.0558 27.7083 11.6667 27.7083C13.2775 27.7083 14.5833 29.0141 14.5833 30.625Z" fill="#E1E1E1"/>
<path d="M30.6248 30.625C30.6248 32.2359 29.319 33.5417 27.7082 33.5417C26.0973 33.5417 24.7915 32.2359 24.7915 30.625C24.7915 29.0141 26.0973 27.7083 27.7082 27.7083C29.319 27.7083 30.6248 29.0141 30.6248 30.625Z" fill="#E1E1E1"/>
</svg>
