<svg width="20" height="20" viewBox="0 0 20 20" fill="none" xmlns="http://www.w3.org/2000/svg">
<path opacity="0.4" d="M18.3333 6.47467V7.49967H1.66663V6.28301C1.66663 4.37467 3.21663 2.83301 5.12496 2.83301H13.3333V4.97467C13.3333 6.03301 13.9666 6.66634 15.025 6.66634H17.475C17.8083 6.66634 18.0916 6.60801 18.3333 6.47467Z" fill="#E1E1E1"/>
<path d="M1.66663 7.5V13.7167C1.66663 15.625 3.21663 17.1667 5.12496 17.1667H14.875C16.7833 17.1667 18.3333 15.625 18.3333 13.7167V7.5H1.66663ZM6.66663 14.375H4.99996C4.65829 14.375 4.37496 14.0917 4.37496 13.75C4.37496 13.4083 4.65829 13.125 4.99996 13.125H6.66663C7.00829 13.125 7.29163 13.4083 7.29163 13.75C7.29163 14.0917 7.00829 14.375 6.66663 14.375ZM12.0833 14.375H8.74996C8.40829 14.375 8.12496 14.0917 8.12496 13.75C8.12496 13.4083 8.40829 13.125 8.74996 13.125H12.0833C12.425 13.125 12.7083 13.4083 12.7083 13.75C12.7083 14.0917 12.425 14.375 12.0833 14.375Z" fill="#E1E1E1"/>
<path d="M17.475 0.833496H15.025C13.9667 0.833496 13.3334 1.46683 13.3334 2.52516V4.97516C13.3334 6.0335 13.9667 6.66683 15.025 6.66683H17.475C18.5334 6.66683 19.1667 6.0335 19.1667 4.97516V2.52516C19.1667 1.46683 18.5334 0.833496 17.475 0.833496ZM18.025 2.87516L16.05 5.1835C15.975 5.27516 15.8584 5.3335 15.7417 5.3335C15.7334 5.3335 15.7334 5.3335 15.725 5.3335C15.6084 5.3335 15.5 5.29183 15.4167 5.2085L14.5 4.3085C14.3334 4.14183 14.3334 3.86683 14.5 3.70016C14.6667 3.5335 14.9417 3.52516 15.1084 3.70016L15.6917 4.27516L17.3584 2.32516C17.5167 2.14183 17.7834 2.12516 17.9667 2.27516C18.1584 2.42516 18.175 2.70016 18.025 2.87516Z" fill="#E1E1E1"/>
</svg>
