<svg width="25" height="25" viewBox="0 0 25 25" fill="none" xmlns="http://www.w3.org/2000/svg">
<path d="M4.16667 0.78125H1.04167C0.46637 0.78125 0 1.24762 0 1.82292V2.34375C0 2.91904 0.46637 3.38542 1.04167 3.38542H3.1374L5.97527 15.345C6.44028 17.3047 8.16734 18.6987 10.1716 18.7486V18.75H18.3202C20.3502 18.75 22.0848 17.2871 22.4272 15.2861L23.7351 7.64306C23.9528 6.37053 22.9726 5.20833 21.6816 5.20833H6.24643L5.43357 1.78271C5.29428 1.1957 4.76998 0.78125 4.16667 0.78125Z" fill="#3C3C3C"/>
<path d="M10.4167 21.8751C10.4167 23.0257 9.48393 23.9584 8.33333 23.9584C7.18274 23.9584 6.25 23.0257 6.25 21.8751C6.25 20.7245 7.18274 19.7917 8.33333 19.7917C9.48393 19.7917 10.4167 20.7245 10.4167 21.8751Z" fill="#3C3C3C"/>
<path d="M21.8749 21.8751C21.8749 23.0257 20.9422 23.9584 19.7916 23.9584C18.641 23.9584 17.7083 23.0257 17.7083 21.8751C17.7083 20.7245 18.641 19.7917 19.7916 19.7917C20.9422 19.7917 21.8749 20.7245 21.8749 21.8751Z" fill="#3C3C3C"/>
</svg>
