<svg width="32" height="33" viewBox="0 0 32 33" fill="none" xmlns="http://www.w3.org/2000/svg">
<path fill-rule="evenodd" clip-rule="evenodd" d="M15.6592 5.75C13.5936 5.75 11.7657 7.12925 11.1407 9.15953L10.0739 12.625H10.9924H20.3258H21.2444L20.1776 9.15953C19.5525 7.12925 17.7246 5.75 15.6592 5.75ZM24.0421 12.625L22.7192 8.32744C21.7426 5.15509 18.8866 3 15.6592 3C12.4316 3 9.57562 5.15509 8.59904 8.32744L7.27608 12.625H4.12303C2.33364 12.625 1.05203 14.4064 1.57096 16.1725L3.06995 21.2737L4.92046 27.5713C5.43155 29.3106 6.98623 30.5 8.74856 30.5H12.9924H18.3258H22.5697C24.332 30.5 25.8866 29.3106 26.3977 27.5713L28.2482 21.2737L29.7473 16.1725C30.2662 14.4064 28.9846 12.625 27.1952 12.625H24.0421ZM8.25171 15.375H4.12303L5.33515 19.5H10.374L9.82859 15.375H8.25171ZM12.5199 15.375L13.0654 19.5H18.2528L18.7982 15.375H12.5199ZM21.4896 15.375L20.9442 19.5H25.983L27.1952 15.375H23.0665H21.4896ZM25.175 22.25H20.5805L19.8533 27.75H22.5697C23.1572 27.75 23.6753 27.3536 23.8457 26.7738L25.175 22.25ZM17.162 27.75L17.8892 22.25H13.429L14.1562 27.75H17.162ZM11.465 27.75L10.7377 22.25H6.14323L7.47252 26.7738C7.64288 27.3536 8.16112 27.75 8.74856 27.75H11.465Z" fill="#3C3C3C"/>
</svg>
