<svg width="15" height="15" viewBox="0 0 15 15" fill="none" xmlns="http://www.w3.org/2000/svg">
<path opacity="0.5" d="M13.75 7.5C13.75 10.9517 10.9517 13.75 7.5 13.75C4.04822 13.75 1.25 10.9517 1.25 7.5C1.25 4.04822 4.04822 1.25 7.5 1.25C10.9517 1.25 13.75 4.04822 13.75 7.5Z" fill="#3C3C3C"/>
<path d="M5.60604 5.60604C5.7891 5.42299 6.0859 5.42299 6.26894 5.60604L7.5 6.83712L8.73106 5.60605C8.91412 5.423 9.21087 5.423 9.39394 5.60605C9.577 5.78911 9.577 6.08591 9.39394 6.269L8.16294 7.5L9.39394 8.731C9.577 8.91406 9.577 9.21087 9.39394 9.39394C9.21087 9.577 8.91406 9.577 8.731 9.39394L7.5 8.16294L6.269 9.39394C6.08591 9.577 5.78911 9.577 5.60605 9.39394C5.423 9.21087 5.423 8.91412 5.60605 8.73106L6.83712 7.5L5.60604 6.26894C5.42299 6.0859 5.42299 5.7891 5.60604 5.60604Z" fill="#3C3C3C"/>
</svg>
