<svg width="18" height="18" viewBox="0 0 18 18" fill="none" xmlns="http://www.w3.org/2000/svg">
<g clip-path="url(#clip0_52_149)">
<path d="M13.2571 8.49635C12.2041 7.44335 10.7633 7.10343 10.7633 4.76184C10.7633 3.13773 11.5784 1.10767 11.5784 1.10767H6.70594C6.70594 1.10767 7.52097 3.13773 7.52097 4.76188C7.52097 7.10346 6.0802 7.44335 5.0272 8.49639C3.97416 9.54942 3.323 11.0046 3.323 12.6114C3.323 13.6311 3.5853 14.5895 4.04609 15.4229C4.50741 16.2561 5.16726 16.9641 5.96119 17.4838H9.14241H12.3231C13.1176 16.9641 13.7774 16.2561 14.2382 15.4229C14.6995 14.5895 14.9619 13.6311 14.9619 12.6114C14.9619 11.0045 14.3107 9.54939 13.2571 8.49635Z" fill="#E1E1E1"/>
</g>
<defs>
<clipPath id="clip0_52_149">
<rect width="18" height="18" fill="white"/>
</clipPath>
</defs>
</svg>
