<svg width="20" height="20" viewBox="0 0 20 20" fill="none" xmlns="http://www.w3.org/2000/svg">
<g clip-path="url(#clip0_113_1815)">
<path d="M10 11.7578C10.9688 11.7578 11.7617 10.9688 11.7617 9.99609C11.7617 9.61328 11.6367 9.25781 11.4297 8.96875C11.1094 8.52734 10.5899 8.23438 10.0039 8.23438C9.41798 8.23438 8.89845 8.52344 8.57814 8.96875C8.37111 9.25781 8.24611 9.61328 8.24611 9.99609C8.2422 10.9688 9.03126 11.7578 10 11.7578Z" fill="#E1E1E1"/>
<path d="M13.8438 7.84766V6.37109V6.15234H13.625L12.1484 6.15625L12.1562 7.85156L13.8438 7.84766Z" fill="#E1E1E1"/>
<path d="M12.7344 10C12.7344 11.5078 11.5078 12.7344 10 12.7344C8.49219 12.7344 7.26562 11.5078 7.26562 10C7.26562 9.63672 7.33984 9.28906 7.46875 8.97266H5.97656V13.0664C5.97656 13.5937 6.40625 14.0234 6.93359 14.0234H13.0664C13.5938 14.0234 14.0234 13.5937 14.0234 13.0664V8.97266H12.5312C12.6641 9.28906 12.7344 9.63672 12.7344 10Z" fill="#E1E1E1"/>
<path d="M10 0C4.47656 0 0 4.47656 0 10C0 15.5234 4.47656 20 10 20C15.5234 20 20 15.5234 20 10C20 4.47656 15.5234 0 10 0ZM15 8.97266V13.0664C15 14.1328 14.1328 15 13.0664 15H6.93359C5.86719 15 5 14.1328 5 13.0664V8.97266V6.92969C5 5.86328 5.86719 4.99609 6.93359 4.99609H13.0664C14.1328 4.99609 15 5.86328 15 6.92969V8.97266Z" fill="#E1E1E1"/>
</g>
<defs>
<clipPath id="clip0_113_1815">
<rect width="20" height="20" fill="white"/>
</clipPath>
</defs>
</svg>
