<svg width="16" height="16" viewBox="0 0 16 16" fill="none" xmlns="http://www.w3.org/2000/svg">
<path d="M12.9998 2.917L12.409 0.961906C12.5535 0.869125 12.6511 0.707031 12.6511 0.521969C12.6511 0.233406 12.4177 0 12.1287 0H4.07155C3.52808 0 3.03148 0.221687 2.67651 0.578125C2.32008 0.933094 2.09789 1.42969 2.09839 1.97266V14.7109C2.09839 15.4228 2.67555 16 3.38745 16H12.8406C13.4402 16 13.9265 15.5142 13.9265 14.9146V3.98681C13.9265 3.44141 13.5232 2.99513 12.9998 2.917ZM4.07155 2.90138C3.81323 2.90138 3.58423 2.79784 3.4148 2.62941C3.24586 2.459 3.14233 2.23047 3.14233 1.97266C3.14233 1.71484 3.24586 1.48584 3.4148 1.31591C3.58423 1.14744 3.81323 1.04394 4.07155 1.04394H11.6335L12.1951 2.90138H4.07155Z" fill="#E1E1E1"/>
</svg>
