<svg width="31" height="32" viewBox="0 0 31 32" fill="none" xmlns="http://www.w3.org/2000/svg">
<path d="M12.24 0C5.47313 0 0 5.47313 0 12.24C0 19.0069 5.47313 24.48 12.24 24.48C14.6559 24.48 16.8919 23.7713 18.7875 22.5675L27.63 31.41L30.69 28.35L21.96 19.6425C23.5294 17.5838 24.48 15.0328 24.48 12.24C24.48 5.47313 19.0069 0 12.24 0ZM12.24 2.88C17.4234 2.88 21.6 7.05656 21.6 12.24C21.6 17.4234 17.4234 21.6 12.24 21.6C7.05656 21.6 2.88 17.4234 2.88 12.24C2.88 7.05656 7.05656 2.88 12.24 2.88Z" fill="#E1E1E1"/>
</svg>
