<svg width="27" height="39" viewBox="0 0 27 39" fill="none" xmlns="http://www.w3.org/2000/svg">
<g clip-path="url(#clip0_504_4650)">
<path fill-rule="evenodd" clip-rule="evenodd" d="M25.875 21.125H1.125C0.826631 21.125 0.5405 20.9538 0.329521 20.649C0.118543 20.3443 0 19.931 0 19.5C0 19.069 0.118543 18.6557 0.329521 18.351C0.5405 18.0462 0.826631 17.875 1.125 17.875H25.875C26.1734 17.875 26.4595 18.0462 26.6705 18.351C26.8815 18.6557 27 19.069 27 19.5C27 19.931 26.8815 20.3443 26.6705 20.649C26.4595 20.9538 26.1734 21.125 25.875 21.125ZM25.875 11.375H1.125C0.826631 11.375 0.5405 11.2038 0.329521 10.899C0.118543 10.5943 0 10.181 0 9.75C0 9.31902 0.118543 8.9057 0.329521 8.60095C0.5405 8.2962 0.826631 8.125 1.125 8.125H25.875C26.1734 8.125 26.4595 8.2962 26.6705 8.60095C26.8815 8.9057 27 9.31902 27 9.75C27 10.181 26.8815 10.5943 26.6705 10.899C26.4595 11.2038 26.1734 11.375 25.875 11.375ZM1.125 27.625H25.875C26.1734 27.625 26.4595 27.7962 26.6705 28.101C26.8815 28.4057 27 28.819 27 29.25C27 29.681 26.8815 30.0943 26.6705 30.399C26.4595 30.7038 26.1734 30.875 25.875 30.875H1.125C0.826631 30.875 0.5405 30.7038 0.329521 30.399C0.118543 30.0943 0 29.681 0 29.25C0 28.819 0.118543 28.4057 0.329521 28.101C0.5405 27.7962 0.826631 27.625 1.125 27.625Z" fill="#3C3C3C"/>
</g>
<defs>
<clipPath id="clip0_504_4650">
<rect width="27" height="39" fill="white"/>
</clipPath>
</defs>
</svg>
