<svg width="34" height="34" viewBox="0 0 34 34" fill="none" xmlns="http://www.w3.org/2000/svg">
<path fill-rule="evenodd" clip-rule="evenodd" d="M23.413 31.7814L28.0541 25.587L28.6427 14.7687H30.2704C31.1204 14.7687 31.8111 12.1677 31.8111 12.1677C31.8111 11.3793 31.1226 10.7354 30.2704 10.7354H26.1734L23.974 2.98765C23.6532 2.3119 22.8563 2.0399 22.1933 2.37778L22.0424 2.45428C21.3815 2.7964 21.1074 3.61878 21.4283 4.29453L23.0029 10.7354H8.86317L10.4952 4.30515C10.8224 3.63578 10.5525 2.80915 9.89805 2.46065L9.7493 2.38415C9.08842 2.0399 8.2873 2.3034 7.96005 2.9749L5.67992 10.7354H1.66367C0.813672 10.7354 0.123047 11.3793 0.123047 12.1677C0.123047 12.1677 0.811547 14.7687 1.66367 14.7687H3.01517L3.9693 28.9955C3.9693 28.9955 4.0798 31.7835 8.45942 31.7835H23.379C23.3876 31.7857 23.3982 31.7814 23.413 31.7814ZM25.368 12.6224H27.6928V14.9535H25.368V12.6224ZM6.44067 14.8877H4.18392V12.6245H6.44067V14.8877ZM10.7565 26.6878C10.7565 27.3933 10.2232 27.9649 9.56867 27.9649H9.5198C8.85892 27.9649 8.32767 27.3933 8.32767 26.6878V17.9604C8.32767 17.2549 8.85892 16.6854 9.5198 16.6854H9.56867C10.2232 16.6854 10.7565 17.2549 10.7565 17.9604V26.6878ZM17.1294 26.641C17.1294 27.3529 16.596 27.9309 15.9415 27.9309H15.8905C15.2318 27.9309 14.7005 27.3529 14.7005 26.641V17.9073C14.7005 17.1954 15.2318 16.6195 15.8905 16.6195H15.9415C16.596 16.6195 17.1294 17.1954 17.1294 17.9073V26.641ZM22.3633 27.9181H22.3165C21.6769 27.9181 21.1606 27.3444 21.1606 26.6389V17.954C21.1606 17.2464 21.6769 16.6748 22.3165 16.6748H22.3633C23.0051 16.6748 23.5236 17.2464 23.5236 17.954V26.6389C23.5236 27.3444 23.0051 27.9181 22.3633 27.9181Z" fill="#E1E1E1"/>
<path fill-rule="evenodd" clip-rule="evenodd" d="M33.9762 29.716L30.8333 25.5L27.6904 29.716H29.7942V33.9554H31.8406V29.716H33.9762Z" fill="#E1E1E1"/>
</svg>
