<svg width="30" height="30" viewBox="0 0 30 30" fill="none" xmlns="http://www.w3.org/2000/svg">
<path d="M29.9119 24.375H20.625V26.25H29.9119V24.375Z" fill="#F09000"/>
<path fill-rule="evenodd" clip-rule="evenodd" d="M26.7076 9.5324H23.0926L21.1519 2.71302C20.8688 2.11865 20.1657 1.87865 19.5807 2.17677L19.4476 2.24427C18.8644 2.54427 18.6226 3.26802 18.9057 3.8624L20.2951 9.53052H7.81881L9.25881 3.8699C9.54756 3.28115 9.30943 2.55365 8.73193 2.24802L8.60068 2.18052C8.01756 1.87677 7.31068 2.10927 7.02193 2.6999L5.01006 9.53052H1.46631C0.716309 9.53052 0.106934 10.0968 0.106934 10.7905C0.106934 10.7905 0.714434 13.078 1.46631 13.078H2.65881L3.50068 25.5974C3.50068 25.5974 3.59818 28.0518 7.46256 28.0518H18.6919V24.1761C18.6301 24.0299 18.5926 23.8705 18.5926 23.698V15.9055C18.5926 15.2718 19.0482 14.7599 19.6144 14.7599H19.6538C20.2182 14.7599 20.6776 15.2718 20.6776 15.9055V22.4418H24.7594L25.2713 13.0799H26.7076C27.4576 13.0799 28.0669 10.7924 28.0669 10.7924C28.0669 10.0986 27.4594 9.5324 26.7076 9.5324ZM5.68318 13.183H3.69193V11.1918H5.68318V13.183ZM9.49131 23.8911C9.49131 24.5474 9.02068 25.078 8.44318 25.078H8.40006C7.81693 25.078 7.34818 24.5474 7.34818 23.8911V15.7743C7.34818 15.118 7.81693 14.5893 8.40006 14.5893H8.44318C9.02068 14.5893 9.49131 15.118 9.49131 15.7743V23.8911ZM15.1144 23.5255C15.1144 24.1518 14.6569 24.6599 14.0944 24.6599H14.0532C13.4869 24.6599 13.0313 24.1518 13.0313 23.5255V15.8399C13.0313 15.2136 13.4869 14.7074 14.0532 14.7074H14.0944C14.6569 14.7074 15.1144 15.2155 15.1144 15.8399V23.5255ZM24.4332 13.2411H22.3819V11.1899H24.4332V13.2411Z" fill="#F09000"/>
</svg>
