<svg width="35" height="35" viewBox="0 0 35 35" fill="none" xmlns="http://www.w3.org/2000/svg">
<path d="M20.416 4.25833V16.3771C20.416 17.8646 19.2056 19.075 17.7181 19.075H4.37435C3.57227 19.075 2.91602 18.4188 2.91602 17.6167V8.29792C2.91602 5.32292 5.32227 2.91667 8.29727 2.91667H19.0598C19.8181 2.91667 20.416 3.51458 20.416 4.25833Z" fill="#0E6200"/>
<path d="M31.3535 22.6042C31.7618 22.6042 32.0827 22.925 32.0827 23.3333V24.7917C32.0827 27.2125 30.1285 29.1667 27.7077 29.1667C27.7077 26.7604 25.7389 24.7917 23.3327 24.7917C20.9264 24.7917 18.9577 26.7604 18.9577 29.1667H16.041C16.041 26.7604 14.0723 24.7917 11.666 24.7917C9.25976 24.7917 7.29102 26.7604 7.29102 29.1667C4.87018 29.1667 2.91602 27.2125 2.91602 24.7917V21.875C2.91602 21.0729 3.57227 20.4167 4.37435 20.4167H18.2285C20.241 20.4167 21.8743 18.7833 21.8743 16.7708V8.75C21.8743 7.94792 22.5306 7.29167 23.3327 7.29167H24.5577C25.6077 7.29167 26.5702 7.86042 27.0952 8.76458L28.0285 10.3979C28.1598 10.6312 27.9848 10.9375 27.7077 10.9375C25.6952 10.9375 24.0618 12.5708 24.0618 14.5833V18.9583C24.0618 20.9708 25.6952 22.6042 27.7077 22.6042H31.3535Z" fill="#0E6200"/>
<path d="M11.6667 32.0833C13.2775 32.0833 14.5833 30.7775 14.5833 29.1667C14.5833 27.5558 13.2775 26.25 11.6667 26.25C10.0558 26.25 8.75 27.5558 8.75 29.1667C8.75 30.7775 10.0558 32.0833 11.6667 32.0833Z" fill="#0E6200"/>
<path d="M23.3327 32.0833C24.9436 32.0833 26.2493 30.7775 26.2493 29.1667C26.2493 27.5558 24.9436 26.25 23.3327 26.25C21.7218 26.25 20.416 27.5558 20.416 29.1667C20.416 30.7775 21.7218 32.0833 23.3327 32.0833Z" fill="#0E6200"/>
<path d="M32.0833 18.2729V20.4167H27.7083C26.9062 20.4167 26.25 19.7604 26.25 18.9583V14.5833C26.25 13.7812 26.9062 13.125 27.7083 13.125H29.5896L31.7042 16.8292C31.9521 17.2667 32.0833 17.7625 32.0833 18.2729Z" fill="#0E6200"/>
</svg>
