<svg width="29" height="29" viewBox="0 0 29 29" fill="none" xmlns="http://www.w3.org/2000/svg">
<path fill-rule="evenodd" clip-rule="evenodd" d="M17.4943 23.5986L18.0018 23.0748C17.9928 23.0186 17.971 22.9679 17.971 22.9081V15.3753C17.971 14.7627 18.4114 14.2679 18.9588 14.2679H18.9969C19.5424 14.2679 19.9865 14.7627 19.9865 15.3753V21.0176L21.2553 19.7036L23.2943 21.7281L23.9686 21.0285L24.4271 12.6421H25.8155C26.5405 12.6421 27.1296 10.4308 27.1296 10.4308C27.1296 9.76019 26.5423 9.21282 25.8155 9.21282H22.321L20.4451 2.62076C20.1714 2.04619 19.4917 1.81419 18.9262 2.10238L18.7975 2.16763C18.2338 2.45763 18 3.15726 18.2737 3.73182L19.6168 9.21101H7.55637L8.94837 3.73907C9.2275 3.16994 8.99731 2.46669 8.43906 2.17126L8.31219 2.10601C7.7485 1.81238 7.06519 2.03713 6.78606 2.60807L4.84125 9.21101H1.41563C0.690625 9.21101 0.101562 9.75838 0.101562 10.429C0.101562 10.429 0.688813 12.6403 1.41563 12.6403H2.56838L3.38219 24.7423C3.38219 24.7423 3.47644 27.1149 7.212 27.1149H19.9376C20.3273 27.1149 20.6499 27.0768 20.9634 27.0315L17.4943 23.5986ZM21.6377 10.8187H23.6206V12.8016H21.6377V10.8187ZM5.49375 12.7436H3.56887V10.8187H5.49375V12.7436ZM9.17494 23.0948C9.17494 23.7291 8.72 24.2421 8.16175 24.2421H8.12006C7.55637 24.2421 7.10325 23.7291 7.10325 23.0948V15.2484C7.10325 14.6141 7.55637 14.1029 8.12006 14.1029H8.16175C8.72 14.1029 9.17494 14.6141 9.17494 15.2484V23.0948ZM14.6106 22.7413C14.6106 23.3467 14.1811 23.8379 13.6518 23.8379H13.6137C13.0827 23.8379 12.6549 23.3467 12.6549 22.7413V15.3119C12.6549 14.7065 13.0827 14.2171 13.6137 14.2171H13.6518C14.1811 14.2171 14.6106 14.7083 14.6106 15.3119V22.7413Z" fill="#0E6200"/>
<rect x="22" y="25.3723" width="7.5976" height="2" transform="rotate(-45 22 25.3723)" fill="#0E6200"/>
<rect x="20.4141" y="22" width="5.51788" height="2" transform="rotate(45 20.4141 22)" fill="#0E6200"/>
</svg>
