<svg width="31" height="30" viewBox="0 0 31 30" fill="none" xmlns="http://www.w3.org/2000/svg">
<path fill-rule="evenodd" clip-rule="evenodd" d="M22.3007 24.3977L21.1979 23.293C21.007 23.6281 20.6894 23.8638 20.3114 23.8638H20.2705C19.6821 23.8638 19.2087 23.332 19.2087 22.6734V14.5761C19.2087 13.9176 19.6821 13.3857 20.2705 13.3857H20.3114C20.8979 13.3857 21.3752 13.9176 21.3752 14.5761V19.5268L23.306 17.596L25.6927 19.9867L26.1486 11.527H27.6411C28.4204 11.527 29.0536 9.26495 29.0536 9.26495C29.0536 8.54407 28.4223 7.95567 27.6411 7.95567H23.8847L21.8681 0.690319C21.5739 0.072696 20.8433 -0.176691 20.2354 0.133094L20.0971 0.203235C19.4912 0.514969 19.2398 1.26703 19.534 1.88465L20.9778 7.95567H8.01351L9.50984 1.947C9.80988 1.33522 9.56244 0.579264 8.96235 0.261685L8.82597 0.191545C8.22004 -0.124086 7.48551 0.117508 7.18547 0.731234L5.0949 7.95567H1.41254C0.63321 7.95567 0 8.54407 0 9.26495C0 9.26495 0.631261 11.527 1.41254 11.527H2.65169L3.52649 24.649C3.52649 24.649 3.6278 27.1994 7.64333 27.1994H19.5068L22.3007 24.3977ZM23.1463 9.678H25.2777V11.8095H23.1463V9.678ZM5.79241 11.7471H3.72327V9.678H5.79241V11.7471ZM9.74948 22.8741C9.74948 23.556 9.26045 24.1074 8.66036 24.1074H8.61555C8.00962 24.1074 7.52253 23.556 7.52253 22.8741V14.4397C7.52253 13.7578 8.00962 13.2084 8.61555 13.2084H8.66036C9.26045 13.2084 9.74948 13.7578 9.74948 14.4397V22.8741ZM15.6724 22.4942C15.6724 23.1449 15.1659 23.6729 14.5463 23.6729H14.4976C13.8722 23.6729 13.3675 23.1449 13.3675 22.4942V14.5079C13.3675 13.8572 13.8722 13.3311 14.4976 13.3311H14.5463C15.1659 13.3311 15.6724 13.8591 15.6724 14.5079V22.4942Z" fill="#A80000"/>
<path fill-rule="evenodd" clip-rule="evenodd" d="M31.0003 27.8205L27.4952 24.3115L30.9632 20.8435L29.6637 19.5518L26.1976 23.0198L22.7491 19.5712L21.3716 20.9507L24.8182 24.3992L21.4203 27.801L22.714 29.0928L26.1138 25.6929L29.6208 29.1999L31.0003 27.8205Z" fill="#A80000"/>
</svg>
