<svg width="20" height="20" viewBox="0 0 20 20" fill="none" xmlns="http://www.w3.org/2000/svg">
<path fill-rule="evenodd" clip-rule="evenodd" d="M0.14089 2.4021C0.34025 0.92963 1.63956 0 2.99004 0H5.55848C6.84977 0 7.99619 0.82629 8.4045 2.05132L9.454 5.19963C9.905 6.55283 9.1086 8.0036 7.72482 8.3496C7.38646 8.4342 7.26975 8.8555 7.51637 9.1022L10.8978 12.4836C11.1445 12.7303 11.5658 12.6135 11.6504 12.2752C11.9964 10.8914 13.4472 10.095 14.8004 10.546L17.9487 11.5955C19.1737 12.0038 20 13.1502 20 14.4415V17.01C20 18.3604 19.0704 19.6598 17.5979 19.8591C16.9114 19.9521 16.211 20 15.5 20C6.93959 20 0 13.0604 0 4.5C0 3.78898 0.0479399 3.08863 0.14089 2.4021Z" fill="#E1E1E1"/>
</svg>
