<svg width="85" height="85" viewBox="0 0 85 85" fill="none" xmlns="http://www.w3.org/2000/svg">
<path d="M42.5 2.65625C20.4956 2.65625 2.65625 20.4956 2.65625 42.5C2.65625 64.5044 20.4956 82.3438 42.5 82.3438C64.5044 82.3438 82.3438 64.5044 82.3438 42.5C82.3438 20.4956 64.5044 2.65625 42.5 2.65625ZM42.5 79.0234C22.3603 79.0234 5.97656 62.6397 5.97656 42.5C5.97656 22.3603 22.3603 5.97656 42.5 5.97656C62.6384 5.97656 79.0234 22.3603 79.0234 42.5C79.0234 62.6397 62.6384 79.0234 42.5 79.0234Z" fill="#3C3C3C"/>
<path d="M33.9216 37.6549C32.7754 35.1952 15.7794 43.1202 16.9255 45.5798C18.7331 49.4527 24.0018 50.8193 28.6941 48.6306C33.3863 46.4405 35.7265 41.5277 33.9216 37.6549Z" fill="#3C3C3C"/>
<path d="M51.0785 37.6549C49.2736 41.5277 51.615 46.4378 56.306 48.6306C60.9982 50.8166 66.2669 49.4527 68.0745 45.5798C69.2207 43.1202 52.2246 35.1952 51.0785 37.6549Z" fill="#3C3C3C"/>
<path d="M32.4421 28.1749C33.0411 27.4391 30.6983 25.7033 30.2056 26.3142C26.6037 30.6333 17.9377 34.6748 12.3104 34.6575C11.5281 34.6402 11.3502 37.5541 12.3038 37.5648C18.7916 37.5873 28.2811 33.1634 32.4421 28.1749Z" fill="#3C3C3C"/>
<path d="M72.6884 34.6574C67.0624 34.6747 58.3951 30.6332 54.7945 26.3141C54.3018 25.7032 51.959 27.4404 52.558 28.1748C56.719 33.1633 66.2071 37.5873 72.695 37.5647C73.6486 37.5527 73.472 34.6402 72.6884 34.6574Z" fill="#3C3C3C"/>
<path d="M53.8967 61.6622C46.7209 58.2914 38.2421 58.2887 31.0583 61.6462C29.2799 62.5029 31.4952 67.158 33.2656 66.2947C38.0084 64.0834 45.0806 63.232 51.6934 66.308C53.4651 67.1301 55.78 62.5719 53.8967 61.6622Z" fill="#3C3C3C"/>
</svg>
