<svg width="20" height="21" viewBox="0 0 20 21" fill="none" xmlns="http://www.w3.org/2000/svg">
<g clip-path="url(#clip0_197_1821)">
<path fill-rule="evenodd" clip-rule="evenodd" d="M16 12.4687C14.897 12.4687 14 11.5269 14 10.3687C14 9.2106 14.897 8.26875 16 8.26875C17.103 8.26875 18 9.2106 18 10.3687C18 11.5269 17.103 12.4687 16 12.4687ZM4 18.9C2.897 18.9 2 17.9581 2 16.8C2 15.6418 2.897 14.7 4 14.7C6.643 14.7 6.644 18.9 4 18.9ZM4 6.3C2.897 6.3 2 5.35815 2 4.2C2 3.04185 2.897 2.1 4 2.1C6.643 2.1 6.644 6.3 4 6.3ZM16 6.16875C14.779 6.16875 13.7 6.75559 12.966 7.66069L7.95901 4.62528C8.21202 2.01498 6.269 0 4 0C1.791 0 0 1.88055 0 4.2C0 6.51945 1.791 8.4 4 8.4C5.347 8.4 6.53199 7.69554 7.25699 6.62454L12.079 9.54767C11.971 10.1189 11.974 10.6692 12.088 11.2393L7.14099 14.2286C6.40899 13.2437 5.281 12.6 4 12.6C1.791 12.6 0 14.4805 0 16.8C0 19.1194 1.791 21 4 21C6.362 21 8.324 18.8243 7.939 16.1689L12.995 13.1145C13.728 13.9986 14.796 14.5687 16 14.5687C18.209 14.5687 20 12.6882 20 10.3687C20 8.0493 18.209 6.16875 16 6.16875Z" fill="#E1E1E1"/>
</g>
<defs>
<clipPath id="clip0_197_1821">
<rect width="20" height="21" fill="white"/>
</clipPath>
</defs>
</svg>
