<svg width="28" height="23" viewBox="0 0 28 23" fill="none" xmlns="http://www.w3.org/2000/svg">
<path d="M3.50505 7.30091C3.90581 7.30091 4.30264 7.37987 4.67287 7.5333C5.0431 7.68672 5.37948 7.91159 5.66277 8.19505C5.94606 8.47852 6.17072 8.81503 6.32391 9.18536C6.4771 9.55568 6.55583 9.95257 6.55558 10.3533V15.0068H21.4425V10.3514C21.4429 9.77893 21.6043 9.21808 21.9084 8.73302C22.2125 8.24795 22.647 7.85825 23.1621 7.60846C23.6772 7.35868 24.2523 7.2589 24.8215 7.32054C25.3906 7.38217 25.931 7.60273 26.3807 7.95699C26.8304 8.31126 27.1714 8.78493 27.3646 9.32384C27.5578 9.86276 27.5955 10.4452 27.4733 11.0045C27.3511 11.5638 27.0739 12.0774 26.6736 12.4866C26.2732 12.8959 25.7658 13.1842 25.2093 13.3186V22.0988C25.2088 22.3373 25.1138 22.566 24.9451 22.7346C24.7764 22.9033 24.5478 22.9983 24.3093 22.9988H3.69073C3.45219 22.9983 3.22357 22.9033 3.05489 22.7346C2.88622 22.566 2.79124 22.3373 2.79073 22.0988V13.3186C2.06351 13.145 1.42536 12.7104 0.997469 12.0973C0.569579 11.4842 0.381749 10.7353 0.469649 9.99279C0.557549 9.25032 0.915056 8.56598 1.47428 8.06973C2.0335 7.57349 2.75739 7.29989 3.50505 7.30091ZM5.51158 5.60701C5.37068 5.54751 5.22716 5.4944 5.08147 5.44785V2.84638C5.08247 2.29005 5.30365 1.75674 5.69668 1.363C6.08971 0.969265 6.62262 0.747119 7.17894 0.745117H20.8173C21.3739 0.746619 21.9073 0.968545 22.3007 1.36234C22.6942 1.75613 22.9156 2.28973 22.9166 2.84638V5.44785C22.7709 5.4944 22.6274 5.54751 22.4865 5.60701C21.5535 6.00102 20.7574 6.6615 20.198 7.50575C19.6385 8.35 19.3405 9.34053 19.3413 10.3533V12.9055H8.65684V10.3533C8.65685 9.34069 8.35855 8.35049 7.79918 7.50638C7.2398 6.66226 6.44415 6.00164 5.51158 5.60701Z" fill="#E1E1E1"/>
</svg>
