<svg width="22" height="22" viewBox="0 0 22 22" fill="none" xmlns="http://www.w3.org/2000/svg">
<path d="M12.8333 2.67659V10.2941C12.8333 11.2291 12.0724 11.9899 11.1374 11.9899H2.74992C2.24575 11.9899 1.83325 11.5774 1.83325 11.0733V5.21575C1.83325 3.34575 3.34575 1.83325 5.21575 1.83325H11.9808C12.4574 1.83325 12.8333 2.20909 12.8333 2.67659Z" fill="#E1E1E1"/>
<path d="M19.7082 14.2083C19.9649 14.2083 20.1666 14.4099 20.1666 14.6666V15.5833C20.1666 17.1049 18.9382 18.3333 17.4166 18.3333C17.4166 16.8208 16.1791 15.5833 14.6666 15.5833C13.1541 15.5833 11.9166 16.8208 11.9166 18.3333H10.0833C10.0833 16.8208 8.84575 15.5833 7.33325 15.5833C5.82075 15.5833 4.58325 16.8208 4.58325 18.3333C3.06159 18.3333 1.83325 17.1049 1.83325 15.5833V13.7499C1.83325 13.2458 2.24575 12.8333 2.74992 12.8333H11.4583C12.7233 12.8333 13.7499 11.8066 13.7499 10.5416V5.49992C13.7499 4.99575 14.1624 4.58325 14.6666 4.58325H15.4366C16.0966 4.58325 16.7016 4.94075 17.0316 5.50909L17.6182 6.53575C17.7007 6.68242 17.5907 6.87492 17.4166 6.87492C16.1516 6.87492 15.1249 7.90159 15.1249 9.16659V11.9166C15.1249 13.1816 16.1516 14.2083 17.4166 14.2083H19.7082Z" fill="#E1E1E1"/>
<path d="M7.33333 20.1667C8.34586 20.1667 9.16667 19.3459 9.16667 18.3333C9.16667 17.3208 8.34586 16.5 7.33333 16.5C6.32081 16.5 5.5 17.3208 5.5 18.3333C5.5 19.3459 6.32081 20.1667 7.33333 20.1667Z" fill="#E1E1E1"/>
<path d="M14.6666 20.1667C15.6791 20.1667 16.4999 19.3459 16.4999 18.3333C16.4999 17.3208 15.6791 16.5 14.6666 16.5C13.654 16.5 12.8333 17.3208 12.8333 18.3333C12.8333 19.3459 13.654 20.1667 14.6666 20.1667Z" fill="#E1E1E1"/>
<path d="M20.1667 11.4858V12.8333H17.4167C16.9125 12.8333 16.5 12.4208 16.5 11.9167V9.16667C16.5 8.6625 16.9125 8.25 17.4167 8.25H18.5992L19.9283 10.5783C20.0842 10.8533 20.1667 11.165 20.1667 11.4858Z" fill="#E1E1E1"/>
</svg>
