<svg width="22" height="22" viewBox="0 0 22 22" fill="none" xmlns="http://www.w3.org/2000/svg">
<rect x="4" y="6" width="13" height="12" fill="#E1E1E1"/>
<path d="M11 0C4.92422 0 0 4.92422 0 11C0 17.0758 4.92422 22 11 22C17.0758 22 22 17.0758 22 11C22 4.92422 17.0758 0 11 0ZM15.3914 9.28984C15.3957 9.38438 15.3957 9.4832 15.3957 9.58203C15.3957 12.5684 13.1227 16.0145 8.96328 16.0145C7.68711 16.0145 6.49688 15.6406 5.5 15.0004C5.67617 15.0219 5.85664 15.0305 6.04141 15.0305C7.09844 15.0305 8.07383 14.6695 8.84727 14.0637C7.85898 14.0465 7.02109 13.3934 6.7375 12.4953C6.875 12.5211 7.0168 12.534 7.16289 12.534C7.36914 12.534 7.57109 12.5082 7.76016 12.4523C6.72461 12.2461 5.94687 11.3309 5.94687 10.2352V10.2094C6.25195 10.377 6.6 10.4801 6.96953 10.493C6.36367 10.0891 5.96406 9.39297 5.96406 8.61094C5.96406 8.19844 6.07578 7.80742 6.26914 7.47227C7.38633 8.84297 9.04922 9.74102 10.927 9.83555C10.8883 9.67227 10.8668 9.50039 10.8668 9.31992C10.8668 8.07383 11.8809 7.05976 13.127 7.05976C13.7758 7.05976 14.3645 7.33477 14.777 7.77305C15.2926 7.66992 15.7738 7.48516 16.2121 7.22305C16.0445 7.75156 15.6836 8.19414 15.2195 8.47344C15.675 8.41758 16.1133 8.29727 16.5172 8.1168C16.2164 8.57227 15.834 8.96758 15.3914 9.28984Z" fill="#E1E1E1"/>
<path d="M6 11L6.00004 10.9958L6 11ZM6 11L6.00004 11.0042L6 11ZM13.8258 10.4722L13.8258 10.4721C13.7926 10.4557 13.7591 10.4397 13.7253 10.4241C13.6712 9.58346 13.4192 8.90875 12.9825 8.43909C12.5339 7.9566 11.9007 7.70171 11.1199 7.69656L11.1199 7.69656L11.0987 7.69652C10.1595 7.69652 9.37216 8.11197 8.88827 8.86999L8.83699 8.95032L8.91477 9.0054L9.74893 9.59616L9.83455 9.6568L9.89101 9.56836C10.212 9.06556 10.7153 8.9553 11.0991 8.9553L11.112 8.95534L11.1123 8.95534C11.5921 8.9585 11.9367 9.10177 12.1563 9.36494C12.2975 9.53426 12.4018 9.76435 12.4641 10.0577C12.0529 9.99688 11.6136 9.98036 11.1486 10.0079L11.1486 10.0079C10.4095 10.0518 9.79338 10.2969 9.36866 10.6947C8.94252 11.0938 8.71522 11.6413 8.74784 12.2734C8.78104 12.9165 9.09237 13.4717 9.62291 13.8333L9.67923 13.7507L9.62292 13.8333C10.0697 14.1378 10.6415 14.2846 11.2321 14.2513L11.2321 14.2513C12.012 14.2071 12.6321 13.8982 13.0646 13.329C13.3658 12.9327 13.5618 12.4322 13.6604 11.8193C13.9391 12.0207 14.1448 12.27 14.2648 12.5591L14.2648 12.5591C14.5022 13.1306 14.5179 14.0761 13.768 14.8496C13.1062 15.5322 12.3111 15.8318 11.0861 15.8412C9.72857 15.8306 8.71721 15.3823 8.06146 14.5217C7.44374 13.711 7.11753 12.5304 7.10526 11C7.11753 9.46963 7.44374 8.28896 8.06146 7.47828L7.98778 7.42213L8.06146 7.47828C8.71721 6.61765 9.72855 6.16936 11.086 6.15878C12.4535 6.16945 13.4839 6.62 14.1658 7.48611C14.5014 7.91245 14.7568 8.45163 14.9259 9.08518L14.9519 9.18257L15.049 9.1558L16.0266 8.88655L16.1218 8.8603L16.0967 8.76472C15.8855 7.96086 15.5522 7.26509 15.0967 6.68651C14.1709 5.51056 12.818 4.91238 11.0902 4.9V4.9H11.0894L11.0826 4.9L11.0819 4.9C9.35736 4.91234 8.01859 5.51295 7.11841 6.69435L7.19796 6.75496L7.11841 6.69435C6.31974 7.74255 5.91369 9.19304 5.90005 10.995L5.90001 10.999H5.89998L5.90001 11.001L5.90005 11.005C5.90005 11.005 5.90005 11.0051 5.90005 11.0051C5.91371 12.807 6.31975 14.2575 7.11841 15.3057C8.01859 16.487 9.35736 17.0877 11.0819 17.1H11.0826L11.0894 17.1L11.0902 17.1C12.6223 17.089 13.7151 16.6734 14.6149 15.7453C15.7961 14.527 15.7609 12.9982 15.3705 12.058L15.3705 12.0579C15.0887 11.3796 14.5525 10.832 13.8258 10.4722ZM11.1668 12.9943L11.1666 12.9944C10.8662 13.0118 10.5648 12.9504 10.3382 12.8155C10.1142 12.6823 9.96547 12.48 9.95131 12.2056C9.94073 12.0007 10.0107 11.7843 10.2003 11.6102C10.3913 11.4348 10.7125 11.2946 11.2172 11.2646C11.3342 11.2577 11.449 11.2543 11.5617 11.2543C11.8993 11.2543 12.2159 11.2851 12.5061 11.3439C12.4391 12.0483 12.2446 12.4461 12.0104 12.6734C11.7675 12.9092 11.4658 12.9774 11.1668 12.9943Z" fill="#1D232A" stroke="#1D232A" stroke-width="0.2"/>
</svg>
