<svg width="20" height="20" viewBox="0 0 20 20" fill="none" xmlns="http://www.w3.org/2000/svg">
<path d="M2.49935 11.6666V3.33329C2.49935 2.89127 2.67494 2.46734 2.9875 2.15478C3.30006 1.84222 3.72399 1.66663 4.16602 1.66663H15.8327C16.2747 1.66663 16.6986 1.84222 17.0112 2.15478C17.3238 2.46734 17.4993 2.89127 17.4993 3.33329V4.99996C17.4993 5.22097 17.4116 5.43293 17.2553 5.58921C17.099 5.74549 16.887 5.83329 16.666 5.83329H10.8327C10.1696 5.83329 9.53376 6.09668 9.06491 6.56553C8.59607 7.03437 8.33268 7.67025 8.33268 8.33329V14.1666C8.33268 14.3876 8.24488 14.5996 8.0886 14.7559C7.93232 14.9122 7.72036 15 7.49935 15H3.33268C2.89065 15 2.46673 14.8244 2.15417 14.5118C1.84161 14.1992 1.66602 13.7753 1.66602 13.3333V12.5C1.66602 12.2789 1.75381 12.067 1.91009 11.9107C2.06637 11.7544 2.27834 11.6666 2.49935 11.6666Z" fill="#E1E1E1"/>
<path d="M2.62826 11.6666H8.46159V14.1666C8.46159 14.3876 8.37379 14.5996 8.21751 14.7559C8.06123 14.9122 7.84927 15 7.62825 15H3.46159C3.01956 15 2.59564 14.8244 2.28308 14.5118C1.97052 14.1992 1.79492 13.7753 1.79492 13.3333V12.5C1.79492 12.2789 1.88272 12.067 2.039 11.9107C2.19528 11.7544 2.40724 11.6666 2.62826 11.6666ZM16.7949 6.66663H10.9616C10.5196 6.66663 10.0956 6.84222 9.78308 7.15478C9.47052 7.46734 9.29492 7.89127 9.29492 8.33329V16.6666C9.29492 17.1087 9.47052 17.5326 9.78308 17.8451C10.0956 18.1577 10.5196 18.3333 10.9616 18.3333H16.7949C17.2369 18.3333 17.6609 18.1577 17.9734 17.8451C18.286 17.5326 18.4616 17.1087 18.4616 16.6666V8.33329C18.4616 7.89127 18.286 7.46734 17.9734 7.15478C17.6609 6.84222 17.2369 6.66663 16.7949 6.66663Z" fill="#E1E1E1"/>
<path d="M11.4336 6.66663L11.6669 7.69996C11.7126 7.88486 11.8201 8.04855 11.9718 8.16378C12.1234 8.27901 12.3099 8.33884 12.5003 8.33329H15.0003C15.1906 8.33884 15.3771 8.27901 15.5288 8.16378C15.6804 8.04855 15.788 7.88486 15.8336 7.69996L16.0669 6.66663H11.4336Z" fill="#3C3C3C"/>
</svg>
