<svg width="34" height="28" viewBox="0 0 34 28" fill="none" xmlns="http://www.w3.org/2000/svg">
<path d="M16.2949 11.9865C16.2949 11.9865 16.295 8.99099 16.2949 7.19369C16.2949 5.03666 18.0764 3 20.7494 3C23.4225 3 25.2039 5.03666 25.2039 7.19369C25.2039 8.99099 25.2039 11.9865 25.2039 11.9865" stroke="#E1E1E1" stroke-width="3" stroke-linecap="round" stroke-linejoin="round"/>
<path fill-rule="evenodd" clip-rule="evenodd" d="M12.0001 12.7921C12 14.8206 11.9999 19.058 12.0001 21.8986C12.0002 25.0396 16.8577 25.75 20.7501 25.75C24.6425 25.75 29.5 25.0396 29.5 21.8986V12.7921C29.5 12.1477 28.9777 11.6283 28.3333 11.6283H13.1667C12.5224 11.6283 12.0001 12.1477 12.0001 12.7921ZM19 18.1699C19 18.7253 19.2414 19.2243 19.625 19.5676V21.3784C19.625 22.0226 20.1473 22.5451 20.7917 22.5451H20.9584C21.6027 22.5451 22.125 22.0226 22.125 21.3784V19.5676C22.5086 19.2243 22.75 18.7253 22.75 18.1699C22.75 17.1344 21.9106 16.295 20.8751 16.295C19.8394 16.295 19 17.1344 19 18.1699Z" fill="#E1E1E1"/>
</svg>
