<svg width="36" height="18" viewBox="0 0 36 18" fill="none" xmlns="http://www.w3.org/2000/svg">
<path d="M32.6074 4.05357C32.4672 3.85334 32.237 3.7332 31.9967 3.7332H27.3412V1.75088C27.3412 1.3404 27.0008 1 26.5904 1H9.72061C9.31012 1 8.96973 1.3404 8.96973 1.75088V13.8851C8.96973 14.2956 9.31012 14.636 9.72061 14.636H11.8431C12.2335 15.9976 13.495 17.0087 14.9768 17.0087C16.4585 17.0087 17.72 16.0076 18.1104 14.636H26.4302C26.8206 15.9976 28.0821 17.0087 29.5638 17.0087C31.0456 17.0087 32.307 16.0076 32.6975 14.636H34.2493C34.6598 14.636 35.0002 14.2956 35.0002 13.8851V7.70785C35.0002 7.54766 34.9501 7.39749 34.86 7.27735L32.6074 4.05357ZM33.5084 7.92811H30.1445V5.24497H31.6162L33.5084 7.92811ZM10.4715 2.51177H25.8395V13.1442H18.1805C17.8902 11.6324 16.5686 10.4911 14.9768 10.4911C13.3849 10.4911 12.0533 11.6324 11.773 13.1442H10.4715V2.51177ZM14.9768 15.507C14.0056 15.507 13.2147 14.7161 13.2147 13.7449C13.2147 12.7738 14.0056 11.9829 14.9768 11.9829C15.9479 11.9829 16.7388 12.7738 16.7388 13.7449C16.7388 14.7161 15.9479 15.507 14.9768 15.507ZM29.5738 15.507C28.6027 15.507 27.8118 14.7161 27.8118 13.7449C27.8118 12.7738 28.6027 11.9829 29.5738 11.9829C30.545 11.9829 31.3359 12.7738 31.3359 13.7449C31.3359 14.7161 30.545 15.507 29.5738 15.507ZM32.7776 13.1442C32.4873 11.6324 31.1657 10.4911 29.5738 10.4911C28.7128 10.4911 27.9219 10.8315 27.3412 11.3822V5.24497H28.6327V8.67899C28.6327 9.08947 28.9731 9.42987 29.3836 9.42987H33.5185V13.1442H32.7776Z" fill="#3C3C3C" stroke="#3C3C3C"/>
<path d="M1.75088 2.51177H7.10715C7.51763 2.51177 7.85803 2.17137 7.85803 1.76089C7.85803 1.35041 7.51763 1.01001 7.10715 1.01001H1.75088C1.3404 1.01001 1 1.35041 1 1.76089C1 2.17137 1.3404 2.51177 1.75088 2.51177Z" fill="#3C3C3C" stroke="#3C3C3C"/>
<path d="M7.10715 3.74316H2.98232C2.57184 3.74316 2.23145 4.08356 2.23145 4.49404C2.23145 4.90452 2.57184 5.24492 2.98232 5.24492H7.10715C7.51763 5.24492 7.85803 4.90452 7.85803 4.49404C7.85803 4.08356 7.52765 3.74316 7.10715 3.74316Z" fill="#3C3C3C" stroke="#3C3C3C"/>
<path d="M7.10783 6.47632H4.50479C4.0943 6.47632 3.75391 6.81672 3.75391 7.2272C3.75391 7.63768 4.0943 7.97808 4.50479 7.97808H7.10783C7.51831 7.97808 7.85871 7.63768 7.85871 7.2272C7.85871 6.81672 7.52832 6.47632 7.10783 6.47632Z" fill="#3C3C3C" stroke="#3C3C3C"/>
<path d="M7.10701 9.20947H6.20596C5.79548 9.20947 5.45508 9.54987 5.45508 9.96035C5.45508 10.3708 5.79548 10.7112 6.20596 10.7112H7.10701C7.51749 10.7112 7.85789 10.3708 7.85789 9.96035C7.85789 9.54987 7.5275 9.20947 7.10701 9.20947Z" fill="#3C3C3C" stroke="#3C3C3C"/>
</svg>
