<svg width="40" height="40" viewBox="0 0 40 40" fill="none" xmlns="http://www.w3.org/2000/svg">
<path d="M6.66667 1.25H1.66667C0.746192 1.25 0 1.9962 0 2.91667V3.75C0 4.67047 0.746192 5.41667 1.66667 5.41667H5.01983L9.56043 24.552C10.3044 27.6875 13.0677 29.918 16.2745 29.9978V30H29.3123C32.5603 30 35.3357 27.6593 35.8835 24.4578L37.9762 12.2289C38.3245 10.1928 36.7562 8.33333 34.6905 8.33333H9.99428L8.69372 2.85233C8.47085 1.91312 7.63197 1.25 6.66667 1.25Z" fill="#E1E1E1"/>
<path d="M16.6667 35C16.6667 36.841 15.1743 38.3333 13.3333 38.3333C11.4924 38.3333 10 36.841 10 35C10 33.159 11.4924 31.6667 13.3333 31.6667C15.1743 31.6667 16.6667 33.159 16.6667 35Z" fill="#E1E1E1"/>
<path d="M35.0002 35C35.0002 36.841 33.5078 38.3333 31.6668 38.3333C29.8258 38.3333 28.3335 36.841 28.3335 35C28.3335 33.159 29.8258 31.6667 31.6668 31.6667C33.5078 31.6667 35.0002 33.159 35.0002 35Z" fill="#E1E1E1"/>
</svg>
