<svg width="22" height="22" viewBox="0 0 22 22" fill="none" xmlns="http://www.w3.org/2000/svg">
<path fill-rule="evenodd" clip-rule="evenodd" d="M10.7657 3.83333C9.34555 3.83333 8.0889 4.75283 7.65921 6.10636L6.92577 8.41667H7.55728H13.974H14.6055L13.8721 6.10636C13.4423 4.75283 12.1857 3.83333 10.7657 3.83333ZM16.5289 8.41667L15.6194 5.55162C14.948 3.43673 12.9845 2 10.7657 2C8.54671 2 6.58321 3.43673 5.91181 5.55162L5.00228 8.41667H2.83455C1.60435 8.41667 0.723241 9.6043 1.08001 10.7817L2.11056 14.1825L3.38278 18.3808C3.73416 19.5404 4.803 20.3333 6.01461 20.3333H8.93228H12.599H15.5166C16.7282 20.3333 17.797 19.5404 18.1484 18.3808L19.4206 14.1825L20.4512 10.7817C20.808 9.6043 19.9269 8.41667 18.6967 8.41667H16.5289ZM5.67302 10.25H2.83455L3.66789 13H7.13213L6.75713 10.25H5.67302ZM8.60743 10.25L8.98246 13H12.5488L12.9238 10.25H8.60743ZM14.7741 10.25L14.3991 13H17.8633L18.6967 10.25H15.8582H14.7741ZM17.3078 14.8333H14.1491L13.6491 18.5H15.5166C15.9205 18.5 16.2767 18.2357 16.3939 17.8492L17.3078 14.8333ZM11.7988 18.5L12.2988 14.8333H9.23244L9.73239 18.5H11.7988ZM7.88213 18.5L7.38213 14.8333H4.22344L5.13733 17.8492C5.25445 18.2357 5.61074 18.5 6.01461 18.5H7.88213Z" fill="#F3F3F3"/>
</svg>
