<svg width="25" height="25" viewBox="0 0 25 25" fill="none" xmlns="http://www.w3.org/2000/svg">
<path fill-rule="evenodd" clip-rule="evenodd" d="M12.2338 4.35604C10.6201 4.35604 9.19204 5.40092 8.70376 6.93902L7.87031 9.56437H8.58792H15.8796H16.5972L15.7638 6.93902C15.2755 5.40092 13.8475 4.35604 12.2338 4.35604ZM18.783 9.56437L17.7494 6.30864C16.9865 3.90535 14.7553 2.27271 12.2338 2.27271C9.71228 2.27271 7.48103 3.90535 6.71808 6.30864L5.68452 9.56437H3.22119C1.82324 9.56437 0.821976 10.914 1.22739 12.2519L2.39848 16.1165L3.84418 20.8873C4.24348 22.205 5.45807 23.106 6.83489 23.106H10.1504H14.3171H17.6327C19.0094 23.106 20.224 22.205 20.6233 20.8873L22.069 16.1165L23.2402 12.2519C23.6456 10.914 22.6443 9.56437 21.2463 9.56437H18.783ZM6.44673 11.6477H3.22119L4.16816 14.7727H8.1048L7.67866 11.6477H6.44673ZM9.78128 11.6477L10.2075 14.7727H14.2601L14.6862 11.6477H9.78128ZM16.7888 11.6477L16.3628 14.7727H20.2993L21.2463 11.6477H18.0208H16.7888ZM19.6681 16.856H16.0786L15.5105 21.0227H17.6327C18.0916 21.0227 18.4964 20.7224 18.6295 20.2831L19.6681 16.856ZM13.4079 21.0227L13.976 16.856H10.4915L11.0596 21.0227H13.4079ZM8.95708 21.0227L8.38889 16.856H4.79948L5.83799 20.2831C5.97108 20.7224 6.37596 21.0227 6.83489 21.0227H8.95708Z" fill="#3C3C3C"/>
</svg>
