<svg width="14" height="14" viewBox="0 0 14 14" fill="none" xmlns="http://www.w3.org/2000/svg">
<g clip-path="url(#clip0_670_5745)">
<path fill-rule="evenodd" clip-rule="evenodd" d="M7.00001 14C5.61554 14 4.26216 13.5895 3.11101 12.8203C1.95987 12.0511 1.06267 10.9579 0.532854 9.67879C0.00304023 8.3997 -0.135593 6.99223 0.134504 5.63437C0.4046 4.2765 1.07129 3.02922 2.05026 2.05026C3.02923 1.07129 4.2765 0.404604 5.63437 0.134507C6.99224 -0.135589 8.39971 0.00302972 9.6788 0.532843C10.9579 1.06266 12.0511 1.95987 12.8203 3.11101C13.5895 4.26215 14 5.61553 14 7C14 8.85652 13.2625 10.637 11.9498 11.9497C10.637 13.2625 8.85652 14 7.00001 14ZM3.0366 8.57851C2.88607 8.42632 2.80164 8.22089 2.80164 8.00684C2.80164 7.79278 2.88607 7.58736 3.0366 7.43517L3.44868 7.02544C3.51876 6.95473 3.60232 6.89881 3.69442 6.86102C3.78652 6.82323 3.88528 6.80432 3.98483 6.80543C4.08438 6.80654 4.18268 6.82764 4.27392 6.86748C4.36516 6.90731 4.44746 6.96508 4.51594 7.03734L5.24394 7.79264C5.27865 7.82926 5.32046 7.85843 5.36682 7.87836C5.41317 7.8983 5.4631 7.90858 5.51356 7.90858C5.56402 7.90858 5.61395 7.8983 5.66031 7.87836C5.70666 7.85843 5.74846 7.82926 5.78317 7.79264L9.49317 3.9683C9.56215 3.89553 9.64513 3.83747 9.73713 3.79759C9.82912 3.75772 9.92823 3.73687 10.0285 3.73628C10.1288 3.73569 10.2281 3.75538 10.3206 3.79417C10.413 3.83296 10.4967 3.89005 10.5665 3.96201L10.9667 4.3666C11.1135 4.51816 11.1956 4.72093 11.1956 4.93197C11.1956 5.14301 11.1135 5.34577 10.9667 5.49734L6.04124 10.5026C5.9725 10.5737 5.89026 10.6304 5.79932 10.6694C5.70838 10.7083 5.61056 10.7287 5.51164 10.7294C5.41271 10.73 5.31465 10.7109 5.2232 10.6732C5.13176 10.6354 5.04877 10.5798 4.9791 10.5096L3.0366 8.57851Z" fill="#30C22D"/>
</g>
<defs>
<clipPath id="clip0_670_5745">
<rect width="14" height="14" fill="white"/>
</clipPath>
</defs>
</svg>
