<svg width="20" height="20" viewBox="0 0 20 20" fill="none" xmlns="http://www.w3.org/2000/svg">
<path d="M17.2233 2.65332H2.77668C1.24324 2.65332 0 3.89656 0 5.43V14.57C0 16.1034 1.24324 17.3467 2.77668 17.3467H17.2233C18.7567 17.3467 20 16.1034 20 14.57V5.43C20 3.89656 18.7567 2.65332 17.2233 2.65332ZM6.95961 12.5672L3.07133 15.8844C2.79707 16.1184 2.38477 16.0859 2.15074 15.8114C1.91668 15.5371 1.94922 15.1248 2.22379 14.8908L6.11207 11.5736C6.38629 11.3395 6.79855 11.3721 7.03262 11.6466C7.26668 11.9209 7.23414 12.3332 6.95961 12.5672ZM10 11.3061C9.47992 11.3048 8.97578 11.132 8.58164 10.7911L8.58195 10.7914L8.5807 10.7905C8.58102 10.7908 8.58137 10.7908 8.58164 10.7911L2.6157 5.61305C2.34305 5.37641 2.31402 4.96414 2.55031 4.69184C2.78691 4.41918 3.19922 4.39016 3.47148 4.62645L9.4391 9.80582C9.56664 9.91934 9.7768 10.0013 10 10C10.2229 10.0007 10.4295 9.92094 10.5641 9.80359L10.567 9.80105L16.5285 4.62648C16.8008 4.3902 17.2131 4.41922 17.4497 4.69187C17.6859 4.96414 17.657 5.37645 17.3843 5.61309L11.4167 10.7927C11.0239 11.13 10.5204 11.3054 10 11.3061ZM17.8495 15.8114C17.6155 16.0859 17.2032 16.1184 16.929 15.8844L13.0407 12.5672C12.7662 12.3331 12.7336 11.9209 12.9677 11.6466C13.2017 11.3721 13.614 11.3396 13.8882 11.5736L17.7765 14.8908C18.0511 15.1248 18.0836 15.5371 17.8495 15.8114Z" fill="#E1E1E1"/>
</svg>
