<svg width="35" height="35" viewBox="0 0 35 35" fill="none" xmlns="http://www.w3.org/2000/svg">
<path d="M25.3752 12.2208C24.2642 11.2398 23.3769 10.0316 22.773 8.67804C22.1692 7.32449 21.863 5.85707 21.8752 4.37499C21.8738 4.11237 21.8016 3.85499 21.6661 3.63003C21.5305 3.40507 21.3368 3.22087 21.1053 3.0969C20.8738 2.97292 20.6131 2.91377 20.3507 2.92568C20.0883 2.93759 19.8341 3.02013 19.6147 3.16458C17.8111 4.23758 16.2381 5.65742 14.9865 7.34203C13.735 9.02663 12.8297 10.9426 12.3231 12.9792C12.0286 12.4631 11.8077 11.9085 11.6668 11.3312C11.6126 11.063 11.484 10.8155 11.2957 10.617C11.1075 10.4184 10.8672 10.2768 10.6022 10.2083C10.349 10.131 10.0794 10.124 9.82249 10.1882C9.56556 10.2525 9.33098 10.3855 9.14391 10.5729C7.29183 12.5125 5.8335 17.5 5.8335 20.4167C5.8335 27.825 10.0918 32.0833 17.5002 32.0833C24.9085 32.0833 29.1668 27.7083 29.1668 20.4167C29.1668 16.3625 27.1543 14.1604 25.3752 12.2208Z" fill="#E1E1E1"/>
</svg>
