<svg width="40" height="40" viewBox="0 0 40 40" fill="none" xmlns="http://www.w3.org/2000/svg">
<path d="M28.9998 13.9667C27.7302 12.8454 26.7161 11.4647 26.026 9.91778C25.3359 8.37086 24.986 6.69381 24.9998 5.00001C24.9983 4.69987 24.9157 4.40572 24.7609 4.14862C24.606 3.89152 24.3846 3.68101 24.12 3.53933C23.8554 3.39764 23.5574 3.33004 23.2576 3.34365C22.9578 3.35726 22.6672 3.45159 22.4165 3.61668C20.3553 4.84297 18.5575 6.46564 17.1271 8.3909C15.6968 10.3162 14.6622 12.5058 14.0832 14.8333C13.7466 14.2436 13.4942 13.6097 13.3332 12.95C13.2712 12.6435 13.1242 12.3606 12.9091 12.1337C12.6939 11.9067 12.4193 11.7449 12.1165 11.6667C11.827 11.5783 11.519 11.5703 11.2253 11.6437C10.9317 11.7171 10.6636 11.8691 10.4498 12.0833C8.33317 14.3 6.6665 20 6.6665 23.3333C6.6665 31.8 11.5332 36.6667 19.9998 36.6667C28.4665 36.6667 33.3332 31.6667 33.3332 23.3333C33.3332 18.7 31.0332 16.1833 28.9998 13.9667Z" fill="#E1E1E1"/>
</svg>
