<svg width="44" height="44" viewBox="0 0 44 44" fill="none" xmlns="http://www.w3.org/2000/svg">
<path d="M8.28571 3H34.7143C37.6214 3 40 5.37857 40 8.28571V34.7143C40 37.6214 37.6214 40 34.7143 40H8.28571C5.37857 40 3 37.6214 3 34.7143V8.28571C3 5.37857 5.37857 3 8.28571 3Z" fill="#1877F2"/>
<path fill-rule="evenodd" clip-rule="evenodd" d="M18.15 22.1375V35.475C18.15 35.6125 18.2875 35.8875 18.5625 35.8875H23.925C24.2 35.8875 24.3375 35.75 24.3375 35.475V22H28.1875C28.325 22 28.6 21.8625 28.6 21.725L29.0125 17.6C29.0125 17.325 28.875 17.1875 28.6 17.1875H24.3375V14.3C24.3375 13.6125 24.8875 13.0625 25.7125 13.0625H28.7375C29.0125 13.0625 29.15 12.925 29.15 12.65V8.6625C28.875 8.3875 28.7375 8.25 28.4625 8.25H23.5125C20.625 8.25 18.15 10.45 18.15 13.2V17.1875H15.5375C15.2625 17.1875 15.125 17.325 15.125 17.6V21.725C15.125 21.8625 15.2625 22.1375 15.5375 22.1375H18.15Z" fill="white"/>
</svg>
