<svg width="38" height="38" viewBox="0 0 38 38" fill="none" xmlns="http://www.w3.org/2000/svg">
<path fill-rule="evenodd" clip-rule="evenodd" d="M34.7059 10H4V14.6059C4.57601 14.6059 4.86402 14.6059 5.11703 14.6484C6.16804 14.8253 7.05215 15.5346 7.45282 16.5221C7.54926 16.7599 7.61173 17.041 7.73669 17.6034L9.07252 23.6145C9.58483 25.9201 9.841 27.0728 10.683 27.7482C11.5249 28.4235 12.7058 28.4235 15.0675 28.4235H23.6384C26.0002 28.4235 27.1809 28.4235 28.0229 27.7482C28.8649 27.0728 29.1211 25.9201 29.6334 23.6145L30.9691 17.6034C31.0941 17.0412 31.1566 16.7599 31.253 16.5221C31.6537 15.5346 32.5379 14.8253 33.5888 14.6484C33.8418 14.6059 34.1298 14.6059 34.7059 14.6059V10ZM15.4938 17.4241C15.3544 16.5876 14.5634 16.0227 13.727 16.1621C12.8906 16.3015 12.3256 17.0924 12.465 17.9289L13.2327 22.5348C13.372 23.3712 14.1631 23.9362 14.9995 23.7968C15.8358 23.6574 16.4009 22.8664 16.2615 22.03L15.4938 17.4241ZM26.2407 17.9289C26.3801 17.0924 25.8151 16.3015 24.9787 16.1621C24.1423 16.0227 23.3513 16.5876 23.2119 17.4241L22.4443 22.03C22.3049 22.8664 22.8698 23.6574 23.7063 23.7968C24.5427 23.9362 25.3337 23.3712 25.4731 22.5348L26.2407 17.9289Z" fill="#E1E1E1"/>
</svg>
