<svg width="43" height="43" viewBox="0 0 43 43" fill="none" xmlns="http://www.w3.org/2000/svg">
<path d="M36.2761 17.3317C36.1901 14.366 34.8195 11.9285 32.8804 10.4382C30.3864 8.51937 26.9478 8.16731 24.0896 10.2609C23.1463 10.9542 22.2635 11.9137 21.5002 13.1741C20.7369 11.9137 19.8554 10.9542 18.9108 10.2622C16.0526 8.16731 12.6153 8.51937 10.12 10.4396C8.17961 11.9298 6.81032 14.3674 6.72432 17.333C6.67729 18.9079 6.91917 20.6655 7.7832 22.4433C9.14039 25.2343 15.5165 31.4397 21.4505 36.7986L21.4975 36.8497L21.5002 36.847L21.5029 36.8497L21.5513 36.7986C27.4839 31.4411 33.8587 25.2356 35.2172 22.4433C36.0826 20.6655 36.3218 18.9066 36.2761 17.3317Z" fill="#E1E1E1"/>
</svg>
