<svg width="38" height="38" viewBox="0 0 38 38" fill="none" xmlns="http://www.w3.org/2000/svg">
<path d="M32.0579 15.3164C31.9819 12.6956 30.7707 10.5414 29.0571 9.22451C26.8531 7.52876 23.8143 7.21763 21.2885 9.06776C20.4549 9.68051 19.6747 10.5284 19.0002 11.6423C18.3257 10.5284 17.5467 9.68051 16.7119 9.06894C14.1861 7.21763 11.1484 7.52876 8.94324 9.22569C7.22849 10.5426 6.01843 12.6968 5.94243 15.3176C5.90086 16.7093 6.11461 18.2626 6.87818 19.8336C8.07755 22.3001 13.7122 27.7839 18.9562 32.5197L18.9978 32.5648L19.0002 32.5624L19.0026 32.5648L19.0453 32.5197C24.2881 27.7851 29.9216 22.3013 31.1222 19.8336C31.8869 18.2626 32.0983 16.7081 32.0579 15.3164Z" fill="#E1E1E1"/>
</svg>
