<svg width="28" height="28" viewBox="0 0 28 28" fill="none" xmlns="http://www.w3.org/2000/svg">
<path d="M11.76 1.67999C6.49687 1.67999 2.23999 5.93687 2.23999 11.2C2.23999 16.4631 6.49687 20.72 11.76 20.72C13.6391 20.72 15.3781 20.1687 16.8525 19.2325L23.73 26.11L26.11 23.73L19.32 16.9575C20.5406 15.3562 21.28 13.3722 21.28 11.2C21.28 5.93687 17.0231 1.67999 11.76 1.67999ZM11.76 3.91999C15.7916 3.91999 19.04 7.16843 19.04 11.2C19.04 15.2316 15.7916 18.48 11.76 18.48C7.72843 18.48 4.47999 15.2316 4.47999 11.2C4.47999 7.16843 7.72843 3.91999 11.76 3.91999Z" fill="#3C3C3C" fill-opacity="0.5"/>
</svg>
