<svg width="18" height="18" viewBox="0 0 18 18" fill="none" xmlns="http://www.w3.org/2000/svg">
<g clip-path="url(#clip0_52_153)">
<path d="M4.83542 7.46198C4.5271 7.88801 4.34172 8.40544 4.34172 8.97001C4.34172 10.3962 5.49688 11.5522 6.92331 11.5522C7.77884 11.5522 8.52967 11.1334 8.99964 10.4931C9.47024 11.1334 10.2213 11.5522 11.0757 11.5522C12.5033 11.5522 13.6576 10.3962 13.6576 8.97001C13.6576 8.40547 13.4722 7.88804 13.1645 7.46198C14.1938 7.12245 14.9403 6.16539 14.9403 5.02267C14.9403 3.59652 13.7854 2.44104 12.3587 2.44104C12.0854 2.44104 11.8265 2.49455 11.5812 2.57175C11.5746 1.15024 10.4235 0 8.99964 0C7.57669 0 6.42413 1.15024 6.41861 2.57179C6.17336 2.49458 5.9145 2.44107 5.64148 2.44107C4.21442 2.44107 3.05957 3.59652 3.05957 5.0227C3.05957 6.16539 3.80608 7.12245 4.83542 7.46198ZM8.99964 4.97897C9.74211 4.97897 10.344 5.58028 10.344 6.32243C10.344 7.06426 9.74211 7.66557 8.99964 7.66557C8.25781 7.66557 7.65534 7.06426 7.65534 6.32243C7.65537 5.58028 8.25784 4.97897 8.99964 4.97897Z" fill="#E1E1E1"/>
<path d="M13.1301 12.5315C11.4408 12.5431 9.94491 13.3537 8.99541 14.6023C8.0297 13.3664 6.52284 12.576 4.83319 12.587C4.46092 12.5896 4.09825 12.6312 3.74831 12.7079C3.74831 12.738 3.74655 12.7678 3.74686 12.7985C3.76624 15.6901 6.12603 18.0192 9.01826 17.9999C11.9105 17.9804 14.2394 15.6204 14.22 12.7285C14.2197 12.6981 14.2177 12.668 14.2168 12.638C13.8662 12.5662 13.5024 12.5292 13.1301 12.5315Z" fill="#E1E1E1"/>
</g>
<defs>
<clipPath id="clip0_52_153">
<rect width="18" height="18" fill="white"/>
</clipPath>
</defs>
</svg>
