<?xml version="1.0" standalone="no"?>
<!DOCTYPE svg PUBLIC "-//W3C//DTD SVG 20010904//EN"
 "http://www.w3.org/TR/2001/REC-SVG-20010904/DTD/svg10.dtd">
<svg version="1.0" xmlns="http://www.w3.org/2000/svg"
 width="500.000000pt" height="201.000000pt" viewBox="0 0 500.000000 201.000000"
 preserveAspectRatio="xMidYMid meet">

<g transform="translate(0.000000,201.000000) scale(0.100000,-0.100000)"
fill="#000000" stroke="none">
<path d="M520 1587 c-41 -20 -38 -59 8 -114 22 -27 43 -57 46 -69 3 -11 42
-217 86 -457 43 -240 84 -455 90 -478 7 -24 27 -58 45 -76 28 -28 40 -33 80
-33 60 0 100 24 144 85 18 26 137 221 263 433 126 213 231 388 233 390 1 2 20
-9 41 -23 47 -32 74 -39 130 -32 57 6 111 47 142 108 30 57 28 163 -4 206 -40
53 -70 67 -149 71 -92 5 -144 -17 -207 -87 -24 -26 -108 -163 -187 -304 -79
-142 -147 -254 -150 -251 -3 3 -22 105 -43 227 -40 245 -41 226 18 324 22 37
14 59 -27 80 -34 18 -524 18 -559 0z"/>
<path d="M2803 1530 c-164 -34 -255 -185 -209 -344 12 -41 29 -69 59 -99 67
-67 106 -82 217 -82 86 0 100 3 142 27 58 35 111 96 126 147 42 139 -22 282
-150 335 -45 19 -134 27 -185 16z m145 -127 c43 -32 65 -69 69 -120 15 -150
-156 -236 -254 -129 -75 82 -58 206 36 257 44 24 111 20 149 -8z"/>
<path d="M4352 1529 c-93 -22 -151 -116 -120 -197 18 -48 62 -76 165 -108 89
-27 117 -51 104 -87 -18 -50 -126 -43 -215 13 l-46 30 -25 -50 -25 -49 22 -15
c70 -46 123 -61 213 -61 72 0 98 4 130 21 54 28 85 76 85 131 0 84 -42 125
-165 162 -80 23 -115 45 -115 70 0 47 80 55 173 17 l58 -24 24 48 c27 54 26
57 -43 83 -53 21 -164 29 -220 16z"/>
<path d="M2190 1265 l0 -265 180 0 180 0 0 55 0 55 -115 0 -115 0 0 210 0 210
-65 0 -65 0 0 -265z"/>
<path d="M3220 1480 l0 -50 95 0 95 0 0 -132 c0 -157 -8 -182 -61 -186 -24 -2
-46 5 -72 23 -21 14 -40 25 -42 25 -3 0 -17 -18 -31 -40 -26 -39 -26 -41 -9
-60 37 -41 101 -62 175 -58 78 4 112 23 145 79 18 30 20 55 23 242 l3 207
-160 0 -161 0 0 -50z"/>
<path d="M3702 1271 c-62 -142 -112 -262 -112 -265 0 -3 29 -6 64 -6 l63 0 21
50 21 50 119 0 120 0 18 -50 18 -50 69 0 c61 0 68 2 63 18 -4 9 -53 127 -110
262 l-103 245 -70 3 -70 3 -111 -260z m221 22 l36 -93 -81 0 c-60 0 -79 3 -75
13 53 144 72 186 77 180 4 -5 23 -50 43 -100z"/>
<path d="M2208 620 l96 -240 41 0 41 0 96 238 96 237 -36 3 c-20 2 -38 -2 -42
-9 -4 -6 -38 -91 -75 -188 -37 -97 -71 -180 -75 -184 -7 -8 -17 16 -111 265
l-44 118 -42 0 -41 0 96 -240z"/>
<path d="M2650 620 l0 -240 40 0 40 0 0 240 0 240 -40 0 -40 0 0 -240z"/>
<path d="M2860 620 l0 -240 40 0 40 0 2 172 3 172 127 -172 127 -172 41 0 40
0 0 240 0 240 -40 0 -40 0 0 -177 0 -178 -131 178 c-131 177 -131 177 -170
177 l-39 0 0 -240z"/>
<path d="M3410 620 l0 -240 40 0 40 0 0 63 c0 61 1 64 44 106 l43 43 78 -106
77 -106 44 0 c33 0 43 3 38 13 -4 6 -48 68 -97 135 l-89 124 39 44 c21 24 62
71 91 104 l54 60 -44 0 c-44 0 -45 -1 -159 -126 l-114 -125 -3 125 -3 126 -39
0 -40 0 0 -240z"/>
<path d="M3910 620 l0 -240 40 0 40 0 0 240 0 240 -40 0 -40 0 0 -240z"/>
</g>
</svg>
