<svg width="21" height="17" viewBox="0 0 21 17" fill="none" xmlns="http://www.w3.org/2000/svg">
<path d="M2.62885 4.9758C2.92942 4.9758 3.22704 5.03503 3.50472 5.15009C3.78239 5.26516 4.03467 5.43381 4.24714 5.64641C4.45961 5.85901 4.6281 6.1114 4.743 6.38914C4.85789 6.66689 4.91693 6.96455 4.91674 7.26512V10.7552H16.082V7.2637C16.0822 6.83432 16.2033 6.41368 16.4314 6.04988C16.6594 5.68608 16.9853 5.39381 17.3716 5.20647C17.758 5.01913 18.1893 4.9443 18.6162 4.99052C19.043 5.03675 19.4483 5.20217 19.7856 5.46787C20.1229 5.73356 20.3786 6.08882 20.5235 6.493C20.6684 6.89719 20.6967 7.334 20.605 7.75348C20.5134 8.17296 20.3055 8.55819 20.0052 8.86511C19.705 9.17203 19.3244 9.38825 18.907 9.48907V16.0742C18.9066 16.2531 18.8354 16.4246 18.7089 16.5511C18.5824 16.6776 18.4109 16.7488 18.232 16.7492H2.76811C2.58921 16.7488 2.41774 16.6776 2.29123 16.5511C2.16472 16.4246 2.09349 16.2531 2.09311 16.0742V9.48907C1.54769 9.35887 1.06908 9.0329 0.748163 8.57307C0.427245 8.11324 0.286373 7.55157 0.352298 6.99471C0.418223 6.43786 0.686353 5.92461 1.10577 5.55242C1.52519 5.18024 2.06811 4.97504 2.62885 4.9758ZM4.13374 3.70538C4.02807 3.66075 3.92043 3.62092 3.81116 3.58601V1.63491C3.81191 1.21766 3.9778 0.817678 4.27257 0.522375C4.56734 0.227071 4.96703 0.0604615 5.38427 0.05896H15.613C16.0305 0.0600866 16.4305 0.226531 16.7256 0.521875C17.0207 0.817219 17.1868 1.21742 17.1875 1.63491V3.58601C17.0783 3.62092 16.9706 3.66075 16.865 3.70538C16.1652 4.00089 15.5681 4.49624 15.1485 5.12943C14.7289 5.76262 14.5054 6.50552 14.506 7.26512V9.17928H6.49269V7.26512C6.4927 6.50564 6.26898 5.76299 5.84944 5.1299C5.42991 4.49682 4.83317 4.00135 4.13374 3.70538Z" fill="#E1E1E1"/>
</svg>
