<svg width="38" height="38" viewBox="0 0 38 38" fill="none" xmlns="http://www.w3.org/2000/svg">
<path fill-rule="evenodd" clip-rule="evenodd" d="M14.0282 13.7172C13.222 13.7172 12.5676 13.0706 12.5676 12.2738C12.5676 11.477 13.222 10.83 14.0282 10.83C14.8344 10.83 15.4888 11.477 15.4888 12.2738C15.4888 13.0706 14.8344 13.7172 14.0282 13.7172ZM34.1445 19.9068L29.3071 15.1261C21.0856 7.0008 23.0092 8.94657 19.8208 5.58618C19.5462 5.31481 19.1752 5 18.7882 5H9.91966C8.3072 5 7 6.61966 7 8.21324V16.9766C7 17.3606 7.15336 17.7272 7.42649 17.9986C13.1548 23.6584 9.03017 19.5819 21.7516 32.1545C22.8923 33.2818 24.7414 33.2818 25.8821 32.1545C32.2253 25.8869 30.8173 27.2772 34.1445 23.9889C35.2852 22.8616 35.2852 21.0342 34.1445 19.9068Z" fill="#E1E1E1"/>
</svg>
