<svg width="35" height="35" viewBox="0 0 35 35" fill="none" xmlns="http://www.w3.org/2000/svg">
<path fill-rule="evenodd" clip-rule="evenodd" d="M12.9206 12.6343C12.178 12.6343 11.5754 12.0387 11.5754 11.3048C11.5754 10.5709 12.178 9.97504 12.9206 9.97504C13.6632 9.97504 14.2659 10.5709 14.2659 11.3048C14.2659 12.0387 13.6632 12.6343 12.9206 12.6343ZM31.4488 18.3352L26.9933 13.9319C19.4209 6.44811 21.1926 8.24026 18.2559 5.14517C18.003 4.89522 17.6613 4.60526 17.3048 4.60526H9.13643C7.65127 4.60526 6.44727 6.09705 6.44727 7.56483V15.6363C6.44727 15.99 6.58852 16.3277 6.84008 16.5776C12.1162 21.7907 8.31716 18.0359 20.0343 29.616C21.0849 30.6543 22.788 30.6543 23.8387 29.616C29.6811 23.8432 28.3843 25.1237 31.4488 22.0951C32.4994 21.0567 32.4994 19.3736 31.4488 18.3352Z" fill="#E1E1E1"/>
</svg>
