<svg width="33" height="31" viewBox="0 0 33 31" fill="none" xmlns="http://www.w3.org/2000/svg">
<path fill-rule="evenodd" clip-rule="evenodd" d="M20.8632 25.9358L21.4719 25.3074C21.461 25.24 21.435 25.1792 21.435 25.1074V16.0716C21.435 15.3368 21.9633 14.7432 22.6199 14.7432H22.6655C23.3199 14.7432 23.8526 15.3368 23.8526 16.0716V22.8398L25.3745 21.2635L27.8204 23.692L28.6292 22.8528L29.1793 12.793H30.8447C31.7143 12.793 32.4209 10.1406 32.4209 10.1406C32.4209 9.33612 31.7165 8.67953 30.8447 8.67953H26.6529L24.4027 0.772146C24.0744 0.08294 23.2591 -0.195351 22.5807 0.150339L22.4264 0.228608C21.7502 0.576472 21.4697 1.41569 21.798 2.1049L23.4091 8.67736H8.94228L10.612 2.1136C10.9468 1.43091 10.6707 0.587343 10.0011 0.232956L9.8489 0.154687C9.17274 -0.197525 8.35309 0.0720692 8.01827 0.756927L5.6854 8.67736H1.57626C0.706599 8.67736 0 9.33395 0 10.1384C0 10.1384 0.704425 12.7908 1.57626 12.7908H2.95902L3.93521 27.3077C3.93521 27.3077 4.04827 30.1536 8.52919 30.1536H23.7939C24.2613 30.1536 24.6483 30.108 25.0245 30.0536L20.8632 25.9358ZM25.8333 10.6058H28.2118V12.9843H25.8333V10.6058ZM6.4681 12.9148H4.15915V10.6058H6.4681V12.9148ZM10.8838 25.3313C10.8838 26.0923 10.3381 26.7076 9.66845 26.7076H9.61844C8.94228 26.7076 8.39874 26.0923 8.39874 25.3313V15.9195C8.39874 15.1585 8.94228 14.5454 9.61844 14.5454H9.66845C10.3381 14.5454 10.8838 15.1585 10.8838 15.9195V25.3313ZM17.4041 24.9074C17.4041 25.6336 16.8888 26.2228 16.254 26.2228H16.2083C15.5713 26.2228 15.0582 25.6336 15.0582 24.9074V15.9955C15.0582 15.2694 15.5713 14.6824 16.2083 14.6824H16.254C16.8888 14.6824 17.4041 15.2716 17.4041 15.9955V24.9074Z" fill="#026A00"/>
</svg>
