<svg width="20" height="20" viewBox="0 0 20 20" fill="none" xmlns="http://www.w3.org/2000/svg">
<path d="M14.8963 14.6373C14.5587 14.6381 14.2242 14.572 13.9123 14.4428C13.6004 14.3137 13.3171 14.124 13.0788 13.8848L10.4538 11.2598C10.3609 11.1715 10.2376 11.1223 10.1094 11.1223C9.98125 11.1223 9.85797 11.1715 9.76504 11.2598L7.13004 13.8948C6.89184 14.1341 6.60858 14.3238 6.29662 14.453C5.98465 14.5822 5.65019 14.6482 5.31254 14.6473H4.79504L8.12004 17.9723C9.15754 19.0098 10.8413 19.0098 11.8788 17.9723L15.2125 14.6373H14.8963ZM5.31254 5.35232C6.00004 5.35232 6.64504 5.61982 7.13004 6.10482L9.76504 8.73982C9.81032 8.78518 9.8641 8.82116 9.9233 8.84571C9.9825 8.87026 10.046 8.88289 10.11 8.88289C10.1741 8.88289 10.2376 8.87026 10.2968 8.84571C10.356 8.82116 10.4098 8.78518 10.455 8.73982L13.08 6.11482C13.3181 5.87567 13.6012 5.68605 13.9129 5.55689C14.2246 5.42773 14.5589 5.3616 14.8963 5.36232H15.2125L11.8788 2.02857C11.3802 1.53036 10.7042 1.25049 9.99942 1.25049C9.29459 1.25049 8.6186 1.53036 8.12004 2.02857L4.79504 5.35357L5.31254 5.35232Z" fill="#E1E1E1"/>
<path d="M17.9712 8.11994L15.9562 6.10494C15.911 6.12352 15.8626 6.13327 15.8137 6.13369H14.8975C14.4237 6.13369 13.96 6.32619 13.6262 6.66119L11.0012 9.28619C10.8845 9.40354 10.7457 9.49667 10.5929 9.56021C10.44 9.62375 10.2761 9.65647 10.1106 9.65647C9.94508 9.65647 9.78119 9.62375 9.62835 9.56021C9.4755 9.49667 9.33672 9.40354 9.21999 9.28619L6.58499 6.64994C6.24692 6.31327 5.7896 6.12369 5.31249 6.12244H4.18749C4.14085 6.12207 4.09467 6.11317 4.05124 6.09619L2.02874 8.11994C0.991235 9.15744 0.991235 10.8412 2.02874 11.8799L4.05124 13.9024C4.09419 13.8852 4.13994 13.8758 4.18624 13.8749H5.31249C5.78749 13.8749 6.24999 13.6837 6.58499 13.3487L9.21874 10.7124C9.45905 10.4836 9.77816 10.356 10.11 10.356C10.4418 10.356 10.7609 10.4836 11.0012 10.7124L13.6262 13.3374C13.96 13.6724 14.4237 13.8637 14.8975 13.8637H15.8137C15.8637 13.8637 15.9125 13.8762 15.9562 13.8937L17.9712 11.8787C19.0087 10.8412 19.0087 9.15744 17.9712 8.11994Z" fill="#E1E1E1"/>
</svg>
