<svg width="22" height="22" viewBox="0 0 22 22" fill="none" xmlns="http://www.w3.org/2000/svg">
<g clip-path="url(#clip0_847_6496)">
<path d="M16.745 17.6796H17.2558C19.0394 17.6796 19.9312 16.7706 19.9312 14.961V2.71861C19.9312 0.909111 19.0394 0 17.2558 0H8.8922C7.10863 0 6.2082 0.909111 6.2082 2.71861V3.14286H7.33374C8.55454 3.14286 9.53287 3.48916 10.5026 4.45889L15.4117 9.38528C16.39 10.3636 16.745 11.368 16.745 12.5455V17.6796ZM10.9615 3.05627C10.5805 3.05627 10.4073 2.8052 10.4073 2.54548V2.36362C10.4073 2.09522 10.5805 1.85279 10.9615 1.85279H15.1866C15.5589 1.85279 15.7407 2.09522 15.7407 2.36362V2.54548C15.7407 2.8052 15.5589 3.05627 15.1866 3.05627H10.9615ZM4.5199 22H12.8836C14.6671 22 15.5675 21.0909 15.5675 19.2814V12.3117H9.29912C8.18223 12.3117 7.66275 11.7836 7.66275 10.6753V4.32033H4.5199C2.73637 4.32033 1.83594 5.22944 1.83594 7.03898V19.2814C1.83594 21.0996 2.73637 22 4.5199 22ZM9.29048 11.1255H15.1087C15.0221 10.7879 14.7883 10.4762 14.3987 10.0779L9.89654 5.49784C9.51559 5.10824 9.17789 4.87445 8.84891 4.77923V10.684C8.84891 10.9784 8.99607 11.1255 9.29048 11.1255Z" fill="#E1E1E1"/>
</g>
<defs>
<clipPath id="clip0_847_6496">
<rect width="22" height="22" fill="white"/>
</clipPath>
</defs>
</svg>
