<svg width="22" height="22" viewBox="0 0 22 22" fill="none" xmlns="http://www.w3.org/2000/svg">
<path d="M6.11069 20.8705H15.8891C17.7951 20.8705 18.7435 19.9036 18.7435 17.9885V9.62799H12.0772C10.8986 9.62799 10.3462 9.06633 10.3462 7.88775V1.12939H6.11069C4.21394 1.12939 3.25635 2.10541 3.25635 4.02059V17.9885C3.25635 19.9129 4.21394 20.8705 6.11069 20.8705ZM12.1048 8.36657H18.6422C18.5778 7.98903 18.3107 7.62073 17.878 7.16957L12.7954 2.00409C12.3719 1.56217 11.9851 1.29514 11.5984 1.23067V7.86937C11.5984 8.20082 11.7733 8.36657 12.1048 8.36657ZM7.45501 13.6149C7.07747 13.6149 6.81045 13.3479 6.81045 12.9888C6.81045 12.6297 7.07747 12.3626 7.45501 12.3626H14.5541C14.9224 12.3626 15.2078 12.6297 15.2078 12.9888C15.2078 13.3479 14.9224 13.6149 14.5541 13.6149H7.45501ZM7.45501 17.123C7.07747 17.123 6.81045 16.8559 6.81045 16.4969C6.81045 16.1378 7.07747 15.8707 7.45501 15.8707H14.5541C14.9224 15.8707 15.2078 16.1378 15.2078 16.4969C15.2078 16.8559 14.9224 17.123 14.5541 17.123H7.45501Z" fill="#E1E1E1"/>
</svg>
