<svg width="52" height="52" viewBox="0 0 52 52" fill="none" xmlns="http://www.w3.org/2000/svg">
<path fill-rule="evenodd" clip-rule="evenodd" d="M35.75 15.3032C35.75 22.2257 31.5683 28.1667 26 28.1667C20.4273 28.1667 16.25 22.2257 16.25 15.301C16.25 8.38068 19.8467 4.33334 26 4.33334C32.1533 4.33334 35.75 8.37851 35.75 15.3032ZM8.88765 43.641C9.72182 44.6333 13.3142 47.6667 26 47.6667C38.6858 47.6667 42.276 44.6333 43.1123 43.6432C43.1899 43.548 43.2472 43.438 43.2807 43.3199C43.3143 43.2018 43.3233 43.0781 43.3073 42.9563C43.1167 41.0453 41.3963 32.5 26 32.5C10.6037 32.5 8.88332 41.0453 8.69048 42.9563C8.67479 43.0782 8.68419 43.202 8.71809 43.3201C8.752 43.4382 8.8097 43.546 8.88765 43.641Z" fill="#3C3C3C"/>
</svg>
