<svg width="20" height="20" viewBox="0 0 38 38" fill="none" xmlns="http://www.w3.org/2000/svg">
<path d="M27.8 0.666664H23.0333C17.1667 0.666664 13.5 4.33333 13.5 10.2V17.625H24.9583C25.71 17.625 26.3333 18.2483 26.3333 19C26.3333 19.7517 25.71 20.375 24.9583 20.375H13.5V27.8C13.5 33.6667 17.1667 37.3333 23.0333 37.3333H27.7817C33.6483 37.3333 37.315 33.6667 37.315 27.8V10.2C37.3333 4.33333 33.6667 0.666664 27.8 0.666664Z" fill="#292D32"/>
<path d="M5.36258 17.6246L9.15758 13.8297C9.43258 13.5547 9.56091 13.2064 9.56091 12.858C9.56091 12.5097 9.43258 12.143 9.15758 11.8864C8.62591 11.3547 7.74591 11.3547 7.21425 11.8864L1.07258 18.028C0.540911 18.5596 0.540911 19.4396 1.07258 19.9713L7.21425 26.113C7.74591 26.6446 8.62591 26.6446 9.15758 26.113C9.68925 25.5813 9.68925 24.7013 9.15758 24.1696L5.36258 20.3746H13.5026V17.6246H5.36258Z" fill="#292D32"/>
</svg>
