<svg width="30" height="30" viewBox="0 0 30 30" fill="none" xmlns="http://www.w3.org/2000/svg">
<path d="M11.9648 0C5.35007 0 0 5.22744 0 11.6905C0 18.1537 5.35007 23.3811 11.9648 23.3811C14.3264 23.3811 16.5121 22.7042 18.3651 21.5544L27.0088 30L30 27.0774L21.4663 18.7607C23.0004 16.7944 23.9296 14.358 23.9296 11.6905C23.9296 5.22744 18.5795 0 11.9648 0ZM11.9648 2.75072C17.0317 2.75072 21.1144 6.73979 21.1144 11.6905C21.1144 16.6413 17.0317 20.6304 11.9648 20.6304C6.89791 20.6304 2.81525 16.6413 2.81525 11.6905C2.81525 6.73979 6.89791 2.75072 11.9648 2.75072Z" fill="#3C3C3C"/>
</svg>
