<svg width="33" height="33" viewBox="0 0 33 33" fill="none" xmlns="http://www.w3.org/2000/svg">
<path d="M10.3125 13.4062H6.1875C5.56875 13.4062 5.15625 13.8187 5.15625 14.4375C5.15625 15.0563 5.56875 15.4688 6.1875 15.4688H10.3125C10.9313 15.4688 11.3438 15.0563 11.3438 14.4375C11.3438 13.8187 10.9313 13.4062 10.3125 13.4062Z" fill="#E1E1E1"/>
<path d="M7.21875 16.5H6.1875C5.56875 16.5 5.15625 16.9125 5.15625 17.5312C5.15625 18.15 5.56875 18.5625 6.1875 18.5625H7.21875C7.8375 18.5625 8.25 18.15 8.25 17.5312C8.25 16.9125 7.8375 16.5 7.21875 16.5Z" fill="#E1E1E1"/>
<path d="M22.1719 15.4688C19.3875 11.55 14.85 9.28125 10.1063 9.28125H8.25V3.09375C8.25 2.475 7.8375 2.0625 7.21875 2.0625C6.6 2.0625 6.1875 2.475 6.1875 3.09375V9.28125C3.91875 9.28125 2.0625 11.1375 2.0625 13.4062V22.6875C2.0625 24.2344 2.8875 25.575 4.125 26.2969C4.43438 28.875 6.6 30.9375 9.28125 30.9375C11.7563 30.9375 13.8187 29.1844 14.3344 26.8125H17.6344C18.15 29.1844 20.2125 30.9375 22.6875 30.9375C25.1625 30.9375 27.225 29.1844 27.7406 26.8125H29.9062C30.525 26.8125 30.9375 26.4 30.9375 25.7812V24.75C30.9375 19.8 27.0187 15.7781 22.1719 15.4688ZM19.4906 15.4688H18.15C16.1906 15.4688 14.6438 14.025 14.4375 12.1688C16.3969 12.7875 18.15 13.9219 19.4906 15.4688ZM9.28125 28.875C7.52812 28.875 6.1875 27.5344 6.1875 25.7812C6.1875 24.0281 7.52812 22.6875 9.28125 22.6875C11.0344 22.6875 12.375 24.0281 12.375 25.7812C12.375 27.5344 11.0344 28.875 9.28125 28.875ZM22.6875 28.875C20.9344 28.875 19.5938 27.5344 19.5938 25.7812C19.5938 24.0281 20.9344 22.6875 22.6875 22.6875C24.4406 22.6875 25.7812 24.0281 25.7812 25.7812C25.7812 27.5344 24.4406 28.875 22.6875 28.875Z" fill="#E1E1E1"/>
</svg>
