<svg width="20" height="20" viewBox="0 0 20 20" fill="none" xmlns="http://www.w3.org/2000/svg">
<path d="M5.71596 7.85712H2.85882C2.43025 7.85712 2.14453 8.14283 2.14453 8.5714C2.14453 8.99997 2.43025 9.28569 2.85882 9.28569H5.71596C6.14453 9.28569 6.43025 8.99997 6.43025 8.5714C6.43025 8.14283 6.14453 7.85712 5.71596 7.85712Z" fill="#E1E1E1"/>
<path d="M3.5731 10H2.85882C2.43025 10 2.14453 10.2857 2.14453 10.7143C2.14453 11.1429 2.43025 11.4286 2.85882 11.4286H3.5731C4.00167 11.4286 4.28739 11.1429 4.28739 10.7143C4.28739 10.2857 4.00167 10 3.5731 10Z" fill="#E1E1E1"/>
<path d="M13.9286 9.28571C12 6.57143 8.85714 5 5.57143 5H4.28571V0.714286C4.28571 0.285714 4 0 3.57143 0C3.14286 0 2.85714 0.285714 2.85714 0.714286V5C1.28571 5 0 6.28571 0 7.85714V14.2857C0 15.3571 0.571429 16.2857 1.42857 16.7857C1.64286 18.5714 3.14286 20 5 20C6.71429 20 8.14286 18.7857 8.5 17.1429H10.7857C11.1429 18.7857 12.5714 20 14.2857 20C16 20 17.4286 18.7857 17.7857 17.1429H19.2857C19.7143 17.1429 20 16.8571 20 16.4286V15.7143C20 12.2857 17.2857 9.5 13.9286 9.28571ZM12.0714 9.28571H11.1429C9.78571 9.28571 8.71429 8.28571 8.57143 7C9.92857 7.42857 11.1429 8.21429 12.0714 9.28571ZM5 18.5714C3.78571 18.5714 2.85714 17.6429 2.85714 16.4286C2.85714 15.2143 3.78571 14.2857 5 14.2857C6.21429 14.2857 7.14286 15.2143 7.14286 16.4286C7.14286 17.6429 6.21429 18.5714 5 18.5714ZM14.2857 18.5714C13.0714 18.5714 12.1429 17.6429 12.1429 16.4286C12.1429 15.2143 13.0714 14.2857 14.2857 14.2857C15.5 14.2857 16.4286 15.2143 16.4286 16.4286C16.4286 17.6429 15.5 18.5714 14.2857 18.5714Z" fill="#E1E1E1"/>
</svg>
