<svg width="20" height="20" viewBox="0 0 20 20" fill="none" xmlns="http://www.w3.org/2000/svg">
<path d="M10 0C4.47656 0 0 4.47656 0 10C0 15.5234 4.47656 20 10 20C15.5234 20 20 15.5234 20 10C20 4.47656 15.5234 0 10 0ZM13.9922 8.44531C13.9961 8.53125 13.9961 8.62109 13.9961 8.71094C13.9961 11.4258 11.9297 14.5586 8.14844 14.5586C6.98828 14.5586 5.90625 14.2188 5 13.6367C5.16016 13.6562 5.32422 13.6641 5.49219 13.6641C6.45313 13.6641 7.33984 13.3359 8.04297 12.7852C7.14453 12.7695 6.38281 12.1758 6.125 11.3594C6.25 11.3828 6.37891 11.3945 6.51172 11.3945C6.69922 11.3945 6.88281 11.3711 7.05469 11.3203C6.11328 11.1328 5.40625 10.3008 5.40625 9.30469V9.28125C5.68359 9.43359 6 9.52734 6.33594 9.53906C5.78516 9.17188 5.42188 8.53906 5.42188 7.82812C5.42188 7.45312 5.52344 7.09766 5.69922 6.79297C6.71484 8.03906 8.22656 8.85547 9.93359 8.94141C9.89844 8.79297 9.87891 8.63672 9.87891 8.47266C9.87891 7.33984 10.8008 6.41797 11.9336 6.41797C12.5234 6.41797 13.0586 6.66797 13.4336 7.06641C13.9023 6.97266 14.3398 6.80469 14.7383 6.56641C14.5859 7.04688 14.2578 7.44922 13.8359 7.70313C14.25 7.65234 14.6484 7.54297 15.0156 7.37891C14.7422 7.79297 14.3945 8.15234 13.9922 8.44531Z" fill="#E1E1E1"/>
</svg>
