<svg width="18" height="18" viewBox="0 0 18 18" fill="none" xmlns="http://www.w3.org/2000/svg">
<path d="M8.999 1.5C7.88224 1.50104 6.7949 1.85817 5.895 2.51949C4.9951 3.18081 4.32952 4.11186 3.99499 5.17734C3.66046 6.24282 3.6744 7.38722 4.0348 8.44424C4.39519 9.50125 5.08325 10.4158 5.999 11.055V12.75C5.999 12.9489 6.07802 13.1397 6.21867 13.2803C6.35932 13.421 6.55009 13.5 6.749 13.5H11.249C11.4479 13.5 11.6387 13.421 11.7793 13.2803C11.92 13.1397 11.999 12.9489 11.999 12.75V11.055C12.9147 10.4158 13.6028 9.50125 13.9632 8.44424C14.3236 7.38722 14.3375 6.24282 14.003 5.17734C13.6685 4.11186 13.0029 3.18081 12.103 2.51949C11.2031 1.85817 10.1158 1.50104 8.999 1.5ZM6.749 15.75C6.749 15.9489 6.82802 16.1397 6.96867 16.2803C7.10932 16.421 7.30009 16.5 7.499 16.5H10.499C10.6979 16.5 10.8887 16.421 11.0293 16.2803C11.17 16.1397 11.249 15.9489 11.249 15.75V15H6.749V15.75Z" fill="#E1E1E1" stroke="#E1E1E1"/>
</svg>
