<svg width="35" height="35" viewBox="0 0 35 35" fill="none" xmlns="http://www.w3.org/2000/svg">
<path d="M17.4996 2.91666C15.3281 2.91869 13.2138 3.6131 11.464 4.899C9.71421 6.1849 8.42003 7.99527 7.76955 10.067C7.11908 12.1388 7.14619 14.364 7.84696 16.4193C8.54772 18.4746 9.88562 20.2529 11.6662 21.4958V24.7917C11.6662 25.1784 11.8199 25.5494 12.0934 25.8229C12.3669 26.0963 12.7378 26.25 13.1246 26.25H21.8746C22.2613 26.25 22.6323 26.0963 22.9058 25.8229C23.1793 25.5494 23.3329 25.1784 23.3329 24.7917V21.4958C25.1135 20.2529 26.4514 18.4746 27.1522 16.4193C27.853 14.364 27.8801 12.1388 27.2296 10.067C26.5791 7.99527 25.2849 6.1849 23.5351 4.899C21.7853 3.6131 19.6711 2.91869 17.4996 2.91666ZM13.1246 30.625C13.1246 31.0118 13.2782 31.3827 13.5517 31.6562C13.8252 31.9297 14.1961 32.0833 14.5829 32.0833H20.4162C20.803 32.0833 21.1739 31.9297 21.4474 31.6562C21.7209 31.3827 21.8746 31.0118 21.8746 30.625V29.1667H13.1246V30.625Z" fill="#E1E1E1" stroke="#E1E1E1"/>
</svg>
