<svg width="206" height="57" viewBox="0 0 206 57" fill="none" xmlns="http://www.w3.org/2000/svg">
<path d="M48.3987 17.5167C48.4489 19.0519 48.1509 20.385 47.5048 21.5161C46.9014 22.6457 46.0977 23.5257 45.0937 24.1562C44.0884 24.744 43.074 25.0546 42.0505 25.088C41.027 25.1215 40.0819 24.9389 39.2151 24.5403C38.3909 24.1403 37.6898 23.5869 37.1118 22.8801L22.5443 49.3538C21.457 51.353 20.4369 52.7951 19.4839 53.68C18.531 54.5649 17.4361 55.0276 16.1995 55.068C14.8775 55.1111 13.7975 54.7195 12.9594 53.8931C12.1625 53.0227 11.5622 51.6335 11.1584 49.7257L4.81994 20.349C4.66693 19.5855 4.4122 18.9749 4.05572 18.5169C3.69925 18.059 3.23477 17.5619 2.66229 17.0256C2.22332 16.6558 1.91506 16.367 1.73752 16.1594C1.55858 15.9091 1.46355 15.6133 1.4524 15.2722C1.18764 13.7013 2.10004 12.8818 4.18959 12.8135L20.1811 12.2912C21.1619 12.2591 21.9151 12.448 22.4408 12.8577C22.965 13.2248 23.217 13.7502 23.1966 14.4339C23.2092 14.8177 23.1343 15.1403 22.9721 15.4017C22.8525 15.6618 22.6284 15.9892 22.2998 16.3842C21.93 16.8232 21.6447 17.238 21.444 17.6288C21.2433 18.0195 21.152 18.4921 21.1701 19.0465C21.1785 19.3023 21.2068 19.5149 21.255 19.6841L24.1725 34.5087L32.1869 19.1349C33.5903 16.3569 34.9988 14.3899 36.4125 13.2338C37.8248 12.035 39.597 11.4008 41.7292 11.3312C43.6908 11.2671 45.2661 11.792 46.4551 12.9057C47.6854 13.9755 48.3332 15.5125 48.3987 17.5167ZM57.7849 19.8355C60.2583 19.7548 62.0859 20.1646 63.268 21.0652C64.45 21.9658 65.0675 23.2263 65.1204 24.8467C65.1525 25.8275 65.0339 26.7706 64.7646 27.6759L59.5045 46.9939C59.3932 47.5098 59.3439 47.9596 59.3564 48.3434C59.3746 48.8978 59.4958 49.3421 59.7202 49.6763C59.9431 49.9678 60.2514 50.2566 60.6449 50.5425C60.9532 50.8313 61.1748 51.0802 61.3097 51.2892C61.4432 51.4556 61.4721 51.6895 61.3966 51.9908C61.2015 52.5521 60.7883 52.9712 60.157 53.2479C59.5257 53.5247 58.5491 53.6846 57.2271 53.7278L42.6429 54.2042C41.5341 54.2404 40.7183 54.0963 40.1955 53.7719C39.6712 53.4048 39.4846 52.92 39.6357 52.3174C39.7895 51.8001 40.2227 51.3377 40.9351 50.9302C41.5636 50.5682 42.0834 50.1456 42.4945 49.6626C42.9056 49.1796 43.2437 48.4215 43.5088 47.3883L48.47 28.7204C48.5854 28.3324 48.6389 28.0105 48.6306 27.7546C48.6152 27.2855 48.4968 26.9266 48.2752 26.6777C48.0522 26.3861 47.7227 26.0981 47.2865 25.8135C46.8489 25.4863 46.5406 25.1975 46.3617 24.9472C46.1828 24.6969 46.1503 24.3565 46.2643 23.9258C46.4881 22.9367 47.8036 22.0399 50.2106 21.2356C52.6162 20.3886 55.141 19.9219 57.7849 19.8355ZM61.6089 5.55909C63.272 5.50477 64.676 6.01387 65.821 7.08639C66.9645 8.11627 67.5621 9.42013 67.6136 10.998C67.6498 12.1067 67.3869 13.2039 66.8247 14.2895C66.3051 15.3737 65.5234 16.2743 64.4796 16.9915C63.4771 17.6646 62.3361 18.022 61.0568 18.0638C59.4363 18.1167 58.0543 17.6282 56.9108 16.5984C55.8084 15.5244 55.2095 14.1779 55.1139 12.5589C55.0791 11.4928 55.3222 10.4389 55.8431 9.39737C56.3626 8.31317 57.123 7.4132 58.1242 6.69746C59.1253 5.98173 60.2869 5.60227 61.6089 5.55909ZM104.799 43.3372C104.719 43.5106 104.685 43.7678 104.696 44.109C104.706 44.4075 104.777 44.6399 104.911 44.8063C105.087 44.9713 105.303 45.0497 105.559 45.0413C106.07 45.0246 106.49 44.7974 106.817 44.3599C107.186 43.8782 107.434 43.6353 107.562 43.6312C107.775 43.6242 107.95 43.7679 108.088 44.0622C108.224 44.3139 108.299 44.6316 108.311 45.0154C108.394 46.2507 108.029 47.4793 107.215 48.7012C106.4 49.8804 105.173 50.881 103.535 51.7029C101.938 52.4808 99.9886 52.9074 97.6858 52.9826C94.8713 53.0745 92.6116 52.508 90.9067 51.283C89.2004 50.0153 88.2904 48.2948 88.1768 46.1214C88.1252 44.5435 88.4512 42.7613 89.1547 40.7746L92.372 31.4486C92.5671 30.8872 92.6591 30.436 92.6479 30.0948C92.6298 29.5405 92.424 29.1203 92.0304 28.8343C91.6782 28.5043 91.2461 28.3477 90.7344 28.3644C89.7963 28.395 88.9154 28.872 88.0917 29.7954C87.2667 30.6762 86.6832 31.7625 86.3412 33.0543L82.8015 46.2329C82.6463 46.7076 82.5756 47.1581 82.5896 47.5845C82.6063 48.0963 82.7268 48.5192 82.9512 48.8534C83.1741 49.145 83.4831 49.455 83.878 49.7836C84.1849 50.0298 84.4058 50.2573 84.5407 50.4664C84.6756 50.6754 84.7053 50.9306 84.6297 51.2319C84.4772 51.7918 84.0854 52.2102 83.4541 52.4869C82.8228 52.7637 81.8248 52.9244 80.4602 52.9689L65.876 53.4453C64.7672 53.4815 63.9728 53.3367 63.4925 53.0109C62.9683 52.6438 62.7603 52.1597 62.8688 51.5585C63.0226 51.0412 63.4558 50.5788 64.1682 50.1713C64.7967 49.8093 65.3165 49.3867 65.7276 48.9037C66.1387 48.4207 66.4768 47.6626 66.7419 46.6294L71.831 27.9573C71.9094 27.7413 71.9423 27.4414 71.9297 27.0576C71.9144 26.5885 71.796 26.2295 71.5744 25.9806C71.3954 25.7303 71.0865 25.4203 70.6475 25.0504C70.2099 24.7232 69.9017 24.4344 69.7227 24.1841C69.5438 23.9338 69.5113 23.5934 69.6253 23.1628C69.8492 22.1736 71.1646 21.2768 73.5716 20.4725C75.9773 19.6255 78.502 19.1588 81.146 19.0725C83.2781 19.0028 84.9821 19.5448 86.2578 20.6985C87.532 21.8094 88.1393 23.4118 88.0797 25.5055C89.7459 22.9324 91.5445 21.1448 93.4755 20.1425C95.405 19.0976 97.5212 18.5376 99.824 18.4624C102.425 18.3774 104.541 19.0981 106.17 20.6243C107.842 22.1492 108.719 24.1697 108.801 26.6857C108.844 28.0076 108.674 29.3152 108.289 30.6085L104.799 43.3372ZM148.107 16.8852C150.537 16.8058 152.5 17.4248 153.994 18.742C155.53 20.0152 156.329 21.6113 156.392 23.5303C156.459 25.5772 155.893 27.1965 154.694 28.3883C153.495 29.5801 151.893 30.2087 149.889 30.2742C148.098 30.3327 146.697 29.9302 145.687 29.0667C144.676 28.1606 144.172 27.1311 144.178 25.9784C143.748 25.907 143.391 26.0894 143.107 26.5256C142.822 26.9618 142.53 27.8038 142.229 29.0516C142.042 29.8688 141.661 30.6283 141.087 31.3301C143.993 31.4486 146.168 32.0393 147.612 33.102C149.055 34.1648 149.806 35.5704 149.863 37.3188C149.891 38.1717 149.769 39.0294 149.499 39.8921L149.052 41.8917C148.973 42.1077 148.94 42.3863 148.951 42.7275C148.97 43.3245 149.257 43.6139 149.812 43.5958C150.323 43.5791 150.743 43.352 151.07 42.9144C151.439 42.4328 151.687 42.1899 151.815 42.1857C152.028 42.1787 152.203 42.3224 152.341 42.6167C152.477 42.8684 152.552 43.1861 152.564 43.5699C152.647 44.8052 152.303 46.0331 151.532 47.2536C150.802 48.4301 149.639 49.4286 148.044 50.2491C146.49 51.0256 144.583 51.4507 142.323 51.5245C139.593 51.6137 137.29 51.0059 135.411 49.7012C133.576 48.3951 132.622 46.6333 132.549 44.4158C132.523 43.6056 132.663 42.6832 132.971 41.6486L134.082 38.4106C134.27 37.636 134.359 37.0782 134.348 36.737C134.329 36.1826 134.124 35.7838 133.732 35.5405C133.383 35.2958 132.824 35.1859 132.056 35.211L130.777 35.2528L128.206 44.7498C128.095 45.2657 128.045 45.7156 128.058 46.0994C128.076 46.6537 128.197 47.098 128.422 47.4322C128.644 47.7237 128.953 48.0125 129.346 48.2985C129.655 48.5872 129.876 48.8361 130.011 49.0452C130.145 49.2116 130.174 49.4454 130.098 49.7467C129.903 50.308 129.49 50.7271 128.858 51.0038C128.227 51.2806 127.25 51.4406 125.928 51.4837L111.344 51.9601C110.235 51.9963 109.42 51.8522 108.897 51.5278C108.373 51.1607 108.186 50.6759 108.337 50.0733C108.491 49.556 108.924 49.0936 109.636 48.6861C110.265 48.3241 110.785 47.9016 111.196 47.4185C111.607 46.9355 111.945 46.1774 112.21 45.1442L120.89 12.9077C121.006 12.5197 121.059 12.1978 121.051 11.9419C121.036 11.4728 120.895 11.0932 120.63 10.803C120.407 10.5115 120.098 10.2227 119.705 9.93678C119.267 9.60955 118.938 9.32149 118.716 9.07259C118.537 8.8223 118.505 8.48185 118.619 8.05123C118.842 7.06206 120.158 6.1653 122.565 5.36096C124.972 4.55662 127.497 4.11126 130.141 4.0249C132.615 3.94411 134.442 4.354 135.624 5.25455C136.805 6.11246 137.422 7.35165 137.475 8.97212C137.507 9.95293 137.388 10.896 137.119 11.8012L132.147 30.1493L134.258 30.0804C135.111 30.0525 135.785 29.7744 136.28 29.2459C136.818 28.7161 137.22 27.9559 137.486 26.9653C138.449 23.7749 139.756 21.3202 141.408 19.6014C143.059 17.8826 145.292 16.9772 148.107 16.8852ZM171.724 16.1138C174.197 16.033 176.025 16.4429 177.207 17.3434C178.389 18.244 179.007 19.5045 179.06 21.125C179.092 22.1058 178.973 23.0488 178.704 23.9541L173.444 43.2721C173.332 43.788 173.283 44.2379 173.296 44.6217C173.314 45.1761 173.435 45.6203 173.659 45.9545C173.882 46.2461 174.191 46.5348 174.584 46.8208C174.892 47.1096 175.114 47.3584 175.249 47.5675C175.382 47.7339 175.411 47.9677 175.336 48.269C175.141 48.8304 174.728 49.2494 174.096 49.5262C173.465 49.8029 172.488 49.9629 171.166 50.0061L156.582 50.4825C155.473 50.5187 154.658 50.3746 154.135 50.0501C153.61 49.683 153.424 49.1982 153.575 48.5956C153.729 48.0783 154.162 47.6159 154.874 47.2085C155.503 46.8464 156.023 46.4239 156.434 45.9409C156.845 45.4579 157.183 44.6998 157.448 43.6666L162.409 24.9986C162.525 24.6107 162.578 24.2887 162.57 24.0329C162.554 23.5638 162.436 23.2048 162.214 22.9559C161.991 22.6644 161.662 22.3763 161.226 22.0917C160.788 21.7645 160.48 21.4757 160.301 21.2255C160.122 20.9752 160.09 20.6347 160.204 20.2041C160.427 19.2149 161.743 18.3182 164.15 17.5138C166.555 16.6668 169.08 16.2002 171.724 16.1138ZM175.548 1.83734C177.211 1.78302 178.615 2.29212 179.76 3.36464C180.904 4.39453 181.501 5.69838 181.553 7.2762C181.589 8.38495 181.326 9.48212 180.764 10.5677C180.244 11.6519 179.463 12.5526 178.419 13.2697C177.416 13.9428 176.275 14.3002 174.996 14.342C173.376 14.395 171.994 13.9065 170.85 12.8766C169.748 11.8027 169.149 10.4562 169.053 8.83711C169.018 7.77102 169.261 6.71719 169.782 5.67562C170.302 4.59142 171.062 3.69145 172.063 2.97571C173.065 2.25998 174.226 1.88052 175.548 1.83734ZM187.21 11.4458C187.3 5.08206 190.416 1.79992 196.557 1.59934C198.902 1.52273 200.732 1.97525 202.044 2.95692C203.4 3.93719 204.107 5.34417 204.167 7.17787C204.228 9.0542 203.637 11.208 202.393 13.6392L192.936 31.8777C192.456 32.8752 191.946 33.5963 191.405 34.0408C190.906 34.4413 190.273 34.6541 189.505 34.6792C187.842 34.7335 187.02 33.7572 187.04 31.7501L187.21 11.4458ZM187.837 36.5267C189.542 36.4709 190.99 37 192.179 38.1137C193.41 39.2261 194.053 40.6139 194.108 42.277C194.145 43.4284 193.862 44.5689 193.259 45.6985C192.698 46.8268 191.875 47.7715 190.79 48.5326C189.746 49.2498 188.542 49.6306 187.178 49.6752C185.514 49.7295 184.088 49.1998 182.899 48.086C181.71 46.9722 181.067 45.5845 180.97 43.9228C180.933 42.7714 181.194 41.6316 181.755 40.5033C182.316 39.3751 183.118 38.4524 184.162 37.7353C185.247 36.9741 186.472 36.5712 187.837 36.5267Z" fill="#3C3C3C"/>
</svg>
