<svg width="44" height="44" viewBox="0 0 44 44" fill="none" xmlns="http://www.w3.org/2000/svg">
<path d="M40 11.4175C39.9792 10.6194 39.9175 9.82281 39.815 9.031C39.6769 8.33748 39.4467 7.66553 39.1305 7.033C38.7998 6.34684 38.3558 5.7214 37.817 5.183C37.2733 4.65058 36.6489 4.20729 35.967 3.8695C35.3336 3.55952 34.6617 3.33554 33.969 3.2035C33.1847 3.08602 32.3938 3.01806 31.601 3H11.4175C10.6194 3.02079 9.82281 3.08254 9.031 3.185C8.33748 3.32314 7.66553 3.55334 7.033 3.8695C6.34684 4.20016 5.7214 4.64423 5.183 5.183C4.65058 5.72673 4.20729 6.35108 3.8695 7.033C3.55952 7.66637 3.33554 8.33832 3.2035 9.031C3.08602 9.81528 3.01806 10.6062 3 11.399C3 11.7505 3 12.25 3 12.398V30.602C3 30.8055 3 31.2495 3 31.5825C3.02079 32.3806 3.08254 33.1772 3.185 33.969C3.32314 34.6625 3.55334 35.3345 3.8695 35.967C4.20016 36.6532 4.64423 37.2786 5.183 37.817C5.72673 38.3494 6.35108 38.7927 7.033 39.1305C7.66637 39.4405 8.33832 39.6645 9.031 39.7965C9.81528 39.914 10.6062 39.9819 11.399 40H31.5825C32.3806 39.9792 33.1772 39.9175 33.969 39.815C34.6625 39.6769 35.3345 39.4467 35.967 39.1305C36.6532 38.7998 37.2786 38.3558 37.817 37.817C38.3494 37.2733 38.7927 36.6489 39.1305 35.967C39.4405 35.3336 39.6645 34.6617 39.7965 33.969C39.914 33.1847 39.9819 32.3938 40 31.601C40 31.2495 40 30.8055 40 30.602V12.398C40 12.25 40 11.7505 40 11.4175ZM21.9255 34.45C19.7038 34.439 17.5209 33.8663 15.58 32.785L8.55 34.635L10.4 27.753C9.20696 25.7484 8.56847 23.4627 8.55 21.13C8.55737 18.5084 9.34033 15.9476 10.8003 13.7702C12.2602 11.5927 14.3318 9.89593 16.7542 8.89357C19.1767 7.89122 21.8415 7.62809 24.4132 8.13734C26.9848 8.64658 29.3483 9.90542 31.2059 11.7553C33.0635 13.6052 34.3322 15.9634 34.8521 18.5329C35.372 21.1025 35.12 23.7684 34.1277 26.1949C33.1354 28.6215 31.4473 30.7002 29.2759 32.1692C27.1045 33.6381 24.547 34.4317 21.9255 34.45ZM21.9255 10.1595C19.9641 10.1819 18.0438 10.7237 16.3599 11.7297C14.676 12.7356 13.2887 14.1698 12.3393 15.8862C11.39 17.6026 10.9124 19.54 10.9552 21.501C10.998 23.462 11.5596 25.3766 12.583 27.05L12.842 27.4755L11.732 31.527L15.95 30.38L16.357 30.6205C18.0397 31.6117 19.9541 32.1413 21.907 32.156C24.8509 32.156 27.6742 30.9865 29.7559 28.9049C31.8375 26.8232 33.007 23.9999 33.007 21.056C33.007 18.1121 31.8375 15.2888 29.7559 13.2071C27.6742 11.1255 24.8694 10.1595 21.9255 10.1595ZM28.4005 25.9215C28.1582 26.3257 27.8337 26.6745 27.4481 26.9453C27.0626 27.2162 26.6244 27.4031 26.162 27.494C25.4711 27.6203 24.7598 27.5758 24.09 27.3645C23.4598 27.1675 22.842 26.9327 22.24 26.6615C19.9529 25.5139 18.0025 23.7929 16.579 21.6665C15.8055 20.6813 15.3361 19.4919 15.2285 18.244C15.2175 17.7256 15.3155 17.2107 15.5163 16.7326C15.7171 16.2546 16.0161 15.8241 16.394 15.469C16.5053 15.3428 16.6418 15.2414 16.7948 15.1713C16.9478 15.1012 17.1137 15.0639 17.282 15.062H17.8C18.0035 15.062 18.281 15.062 18.54 15.6355C18.799 16.209 19.4835 17.9295 19.576 18.096C19.6215 18.1847 19.6452 18.283 19.6452 18.3827C19.6452 18.4825 19.6215 18.5808 19.576 18.6695C19.4942 18.8705 19.3819 19.0577 19.243 19.2245C19.0765 19.428 18.8915 19.6685 18.7435 19.8165C18.5955 19.9645 18.4105 20.1495 18.5955 20.4825C19.0989 21.332 19.7219 22.1046 20.4455 22.7765C21.2335 23.4728 22.1344 24.0296 23.1095 24.423C23.4425 24.5895 23.646 24.571 23.831 24.423C24.016 24.275 24.6635 23.461 24.8855 23.128C25.1075 22.795 25.3295 22.8505 25.6255 22.9615C25.9215 23.0725 27.568 23.868 27.901 24.0345C28.234 24.201 28.4375 24.275 28.53 24.423C28.6102 24.9072 28.5657 25.4038 28.4005 25.866V25.9215Z" fill="#48C658"/>
</svg>
