<svg width="31" height="31" viewBox="0 0 31 31" fill="none" xmlns="http://www.w3.org/2000/svg">
<path d="M5.16667 0.96875H1.29167C0.578298 0.96875 0 1.54705 0 2.26042V2.90625C0 3.61961 0.578298 4.19792 1.29167 4.19792H3.89037L7.40933 19.0278C7.98595 21.4578 10.1275 23.1864 12.6127 23.2483V23.25H22.7171C25.2343 23.25 27.3851 21.436 27.8097 18.9548L29.4315 9.4774C29.7015 7.89946 28.486 6.45833 26.8851 6.45833H7.74557L6.73763 2.21056C6.56491 1.48267 5.91477 0.96875 5.16667 0.96875Z" fill="#3C3C3C"/>
<path d="M12.9167 27.125C12.9167 28.5518 11.7601 29.7083 10.3333 29.7083C8.9066 29.7083 7.75 28.5518 7.75 27.125C7.75 25.6982 8.9066 24.5417 10.3333 24.5417C11.7601 24.5417 12.9167 25.6982 12.9167 27.125Z" fill="#3C3C3C"/>
<path d="M27.1252 27.125C27.1252 28.5518 25.9686 29.7083 24.5418 29.7083C23.1151 29.7083 21.9585 28.5518 21.9585 27.125C21.9585 25.6982 23.1151 24.5417 24.5418 24.5417C25.9686 24.5417 27.1252 25.6982 27.1252 27.125Z" fill="#3C3C3C"/>
</svg>
