<svg width="52" height="52" viewBox="0 0 52 52" fill="none" xmlns="http://www.w3.org/2000/svg" >
<path d="M47.2809 16.1005C47.0816 15.8125 46.8155 15.5771 46.5053 15.4145C46.1951 15.2518 45.8502 15.1668 45.4999 15.1667H15.8881L13.3878 9.16501C13.0599 8.37466 12.5048 7.69945 11.7927 7.225C11.0806 6.75055 10.2437 6.49822 9.38809 6.50001H4.33325V10.8333H9.38809L19.6668 35.5008C19.8314 35.8955 20.1091 36.2326 20.465 36.4698C20.8209 36.7069 21.239 36.8334 21.6666 36.8333H38.9999C39.9034 36.8333 40.7116 36.2722 41.0301 35.4293L47.5301 18.096C47.6529 17.768 47.6944 17.4151 47.651 17.0676C47.6076 16.7201 47.4806 16.3882 47.2809 16.1005ZM37.4984 32.5H23.1118L17.6951 19.5H42.3734L37.4984 32.5Z" fill="#3C3C3C"/>
<path d="M22.75 45.5C24.5449 45.5 26 44.0449 26 42.25C26 40.4551 24.5449 39 22.75 39C20.9551 39 19.5 40.4551 19.5 42.25C19.5 44.0449 20.9551 45.5 22.75 45.5Z" fill="#3C3C3C"/>
<path d="M37.9167 45.5C39.7117 45.5 41.1667 44.0449 41.1667 42.25C41.1667 40.4551 39.7117 39 37.9167 39C36.1218 39 34.6667 40.4551 34.6667 42.25C34.6667 44.0449 36.1218 45.5 37.9167 45.5Z" fill="#3C3C3C"/>
</svg>
