<svg width="20" height="20" viewBox="0 0 20 20" fill="none" xmlns="http://www.w3.org/2000/svg">
<path d="M10 0C4.47656 0 0 4.47656 0 10C0 15.5234 4.47656 20 10 20C15.5234 20 20 15.5234 20 10C20 4.47656 15.5234 0 10 0ZM12.207 8.30469L12.0938 9.80078H10.5586V14.9961H8.62109V9.80078H7.58594V8.30469H8.62109V7.30078C8.62109 6.85937 8.63281 6.17578 8.95312 5.75C9.29297 5.30078 9.75781 4.99609 10.5586 4.99609C11.8633 4.99609 12.4102 5.18359 12.4102 5.18359L12.1523 6.71484C12.1523 6.71484 11.7227 6.58984 11.3203 6.58984C10.918 6.58984 10.5586 6.73438 10.5586 7.13672V8.30469H12.207Z" fill="#E1E1E1"/>
</svg>
