<svg width="192" height="144" viewBox="0 0 192 144" fill="none" xmlns="http://www.w3.org/2000/svg">
<path d="M0.00255997 95.9963C0.00255997 104.828 2.17853 112.892 6.53047 120.187C10.8824 127.483 16.7063 133.307 24.0022 137.659C31.2981 142.011 39.298 144.123 48.0019 143.995H156.096C165.952 143.995 174.4 140.475 181.44 133.435C188.48 126.395 192 117.948 192 108.092V95.9963C192 86.1407 188.48 77.693 181.44 70.6533C174.4 63.6136 165.952 60.0937 156.096 60.0937C155.84 60.0937 155.52 60.0937 155.136 60.0937C154.753 60.0937 154.432 60.1577 154.176 60.2857C155.456 55.6779 156.096 51.582 156.096 47.9982C156.096 34.8147 151.361 23.5511 141.889 14.2075C132.417 4.86381 121.153 0.127995 108.097 0C96.5773 0 86.4654 3.64786 77.7615 10.9436C69.0576 18.2393 63.4897 27.327 61.0577 38.2065C56.4498 36.7986 52.0979 36.0946 48.0019 36.0946C34.8181 36.0946 23.4902 40.7664 14.0184 50.1101C4.5465 59.4537 -0.125438 70.7813 0.00255997 84.0928V95.9963Z" fill="#3C3C3C"/>
</svg>
