<svg width="42" height="42" viewBox="0 0 42 42" fill="none" xmlns="http://www.w3.org/2000/svg">
<rect width="42" height="42" fill="#E1E1E1"/>
<path fill-rule="evenodd" clip-rule="evenodd" d="M36.3538 14.1749C39.171 11.3467 39.0513 7.63266 36.9478 5.3582C35.9219 4.24918 34.4621 3.54078 32.8085 3.50172C31.1488 3.46252 29.4292 4.09722 27.8425 5.42474C27.8019 5.45869 27.7629 5.49446 27.7256 5.53194L5.03031 28.3178C4.05025 29.3017 3.5 30.6339 3.5 32.0227V34.9863C3.5 36.914 5.06095 38.5 7.0067 38.5H9.94464C11.3406 38.5 12.6792 37.944 13.6643 36.9549L36.3538 14.1749ZM30.1124 10.1377C29.4291 9.45425 28.321 9.45425 27.6376 10.1377C26.9542 10.8211 26.9542 11.9291 27.6376 12.6125L29.3876 14.3625C30.071 15.046 31.1791 15.046 31.8624 14.3625C32.5458 13.6791 32.5458 12.5711 31.8624 11.8877L30.1124 10.1377Z" fill="#3C3C3C"/>
</svg>
