<svg width="21" height="20" viewBox="0 0 21 20" fill="none" xmlns="http://www.w3.org/2000/svg">
<path d="M5.03562 16.9026L3.5 6.66675H17.5L15.9644 16.9026C15.9048 17.2997 15.6967 17.6631 15.3785 17.9259C15.0602 18.1887 14.6531 18.3334 14.2319 18.3334H6.76812C6.34688 18.3334 5.93976 18.1887 5.62151 17.9259C5.30325 17.6631 5.09523 17.2997 5.03562 16.9026ZM18.375 3.33341H14V2.50008C14 2.27907 13.9078 2.06711 13.7437 1.91083C13.5796 1.75455 13.3571 1.66675 13.125 1.66675H7.875C7.64293 1.66675 7.42037 1.75455 7.25628 1.91083C7.09219 2.06711 7 2.27907 7 2.50008V3.33341H2.625C2.39294 3.33341 2.17038 3.42121 2.00628 3.57749C1.84219 3.73377 1.75 3.94573 1.75 4.16675C1.75 4.38776 1.84219 4.59972 2.00628 4.756C2.17038 4.91228 2.39294 5.00008 2.625 5.00008H18.375C18.6071 5.00008 18.8296 4.91228 18.9937 4.756C19.1578 4.59972 19.25 4.38776 19.25 4.16675C19.25 3.94573 19.1578 3.73377 18.9937 3.57749C18.8296 3.42121 18.6071 3.33341 18.375 3.33341Z" fill="#3C3C3C"/>
</svg>
